%TF.GenerationSoftware,KiCad,Pcbnew,(5.1.10)-1*%
%TF.CreationDate,2021-10-15T02:03:15+09:00*%
%TF.ProjectId,orca_keyboard,6f726361-5f6b-4657-9962-6f6172642e6b,rev?*%
%TF.SameCoordinates,Original*%
%TF.FileFunction,Paste,Top*%
%TF.FilePolarity,Positive*%
%FSLAX46Y46*%
G04 Gerber Fmt 4.6, Leading zero omitted, Abs format (unit mm)*
G04 Created by KiCad (PCBNEW (5.1.10)-1) date 2021-10-15 02:03:15*
%MOMM*%
%LPD*%
G01*
G04 APERTURE LIST*
%ADD10R,1.200000X1.200000*%
G04 APERTURE END LIST*
D10*
%TO.C,D00*%
X18085000Y79375000D03*
X14935000Y79375000D03*
%TD*%
%TO.C,D01*%
X33985000Y79375000D03*
X37135000Y79375000D03*
%TD*%
%TO.C,D02*%
X56185000Y79375000D03*
X53035000Y79375000D03*
%TD*%
%TO.C,D03*%
X72085000Y79375000D03*
X75235000Y79375000D03*
%TD*%
%TO.C,D04*%
X129235000Y79375000D03*
X132385000Y79375000D03*
%TD*%
%TO.C,D05*%
X148285000Y79375000D03*
X151435000Y79375000D03*
%TD*%
%TO.C,D06*%
X170485000Y79375000D03*
X167335000Y79375000D03*
%TD*%
%TO.C,D07*%
X187020000Y79375000D03*
X190170000Y79375000D03*
%TD*%
%TO.C,D10*%
X18085000Y50800000D03*
X14935000Y50800000D03*
%TD*%
%TO.C,D11*%
X33985000Y50800000D03*
X37135000Y50800000D03*
%TD*%
%TO.C,D12*%
X53035000Y50800000D03*
X56185000Y50800000D03*
%TD*%
%TO.C,D13*%
X75235000Y50800000D03*
X72085000Y50800000D03*
%TD*%
%TO.C,D14*%
X132385000Y50800000D03*
X129235000Y50800000D03*
%TD*%
%TO.C,D15*%
X148285000Y50800000D03*
X151435000Y50800000D03*
%TD*%
%TO.C,D16*%
X167335000Y50800000D03*
X170485000Y50800000D03*
%TD*%
%TO.C,D17*%
X189535000Y50800000D03*
X186385000Y50800000D03*
%TD*%
%TO.C,D22*%
X62560000Y31750000D03*
X65710000Y31750000D03*
%TD*%
%TO.C,D23*%
X84760000Y31750000D03*
X81610000Y31750000D03*
%TD*%
%TO.C,D24*%
X122860000Y31750000D03*
X119710000Y31750000D03*
%TD*%
%TO.C,D25*%
X141910000Y31750000D03*
X138760000Y31750000D03*
%TD*%
M02*
