%TF.GenerationSoftware,KiCad,Pcbnew,(5.1.10)-1*%
%TF.CreationDate,2021-10-15T02:03:15+09:00*%
%TF.ProjectId,orca_keyboard,6f726361-5f6b-4657-9962-6f6172642e6b,rev?*%
%TF.SameCoordinates,Original*%
%TF.FileFunction,Soldermask,Top*%
%TF.FilePolarity,Negative*%
%FSLAX46Y46*%
G04 Gerber Fmt 4.6, Leading zero omitted, Abs format (unit mm)*
G04 Created by KiCad (PCBNEW (5.1.10)-1) date 2021-10-15 02:03:15*
%MOMM*%
%LPD*%
G01*
G04 APERTURE LIST*
%ADD10C,6.400000*%
%ADD11C,2.082800*%
%ADD12R,1.200000X1.200000*%
%ADD13R,1.600000X1.600000*%
%ADD14C,1.600000*%
%ADD15C,1.701800*%
%ADD16C,3.987800*%
G04 APERTURE END LIST*
D10*
%TO.C,REF\u002A\u002A*%
X200400000Y86580000D03*
%TD*%
%TO.C,REF\u002A\u002A*%
X154860000Y86580000D03*
%TD*%
%TO.C,REF\u002A\u002A*%
X49620000Y86590000D03*
%TD*%
%TO.C,REF\u002A\u002A*%
X4070000Y86580000D03*
%TD*%
%TO.C,REF\u002A\u002A*%
X200410000Y4070000D03*
%TD*%
%TO.C,REF\u002A\u002A*%
X154840000Y4070000D03*
%TD*%
%TO.C,REF\u002A\u002A*%
X49620000Y4070000D03*
%TD*%
%TO.C,REF\u002A\u002A*%
X4070000Y4070000D03*
%TD*%
D11*
%TO.C,B1*%
X94620000Y58030000D03*
X94620000Y55490000D03*
X94620000Y52950000D03*
X94620000Y50410000D03*
X94620000Y47870000D03*
X94620000Y45330000D03*
X94620000Y42790000D03*
X94620000Y40250000D03*
X94620000Y37710000D03*
X94620000Y35170000D03*
X94620000Y32630000D03*
X94620000Y30090000D03*
X109860000Y30090000D03*
X109860000Y32630000D03*
X109860000Y35170000D03*
X109860000Y37710000D03*
X109860000Y40250000D03*
X109860000Y42790000D03*
X109860000Y45330000D03*
X109860000Y47870000D03*
X109860000Y50410000D03*
X109860000Y52950000D03*
X109860000Y55490000D03*
X109860000Y58030000D03*
%TD*%
D12*
%TO.C,D00*%
X18085000Y79375000D03*
X14935000Y79375000D03*
D13*
X12610000Y79375000D03*
D14*
X20410000Y79375000D03*
%TD*%
%TO.C,D01*%
X39460000Y79375000D03*
D13*
X31660000Y79375000D03*
D12*
X33985000Y79375000D03*
X37135000Y79375000D03*
%TD*%
%TO.C,D02*%
X56185000Y79375000D03*
X53035000Y79375000D03*
D13*
X50710000Y79375000D03*
D14*
X58510000Y79375000D03*
%TD*%
%TO.C,D03*%
X77560000Y79375000D03*
D13*
X69760000Y79375000D03*
D12*
X72085000Y79375000D03*
X75235000Y79375000D03*
%TD*%
D14*
%TO.C,D04*%
X134710000Y79375000D03*
D13*
X126910000Y79375000D03*
D12*
X129235000Y79375000D03*
X132385000Y79375000D03*
%TD*%
D14*
%TO.C,D05*%
X153760000Y79375000D03*
D13*
X145960000Y79375000D03*
D12*
X148285000Y79375000D03*
X151435000Y79375000D03*
%TD*%
%TO.C,D06*%
X170485000Y79375000D03*
X167335000Y79375000D03*
D13*
X165010000Y79375000D03*
D14*
X172810000Y79375000D03*
%TD*%
%TO.C,D07*%
X192495000Y79375000D03*
D13*
X184695000Y79375000D03*
D12*
X187020000Y79375000D03*
X190170000Y79375000D03*
%TD*%
%TO.C,D10*%
X18085000Y50800000D03*
X14935000Y50800000D03*
D13*
X12610000Y50800000D03*
D14*
X20410000Y50800000D03*
%TD*%
%TO.C,D11*%
X39460000Y50800000D03*
D13*
X31660000Y50800000D03*
D12*
X33985000Y50800000D03*
X37135000Y50800000D03*
%TD*%
D14*
%TO.C,D12*%
X58510000Y50800000D03*
D13*
X50710000Y50800000D03*
D12*
X53035000Y50800000D03*
X56185000Y50800000D03*
%TD*%
%TO.C,D13*%
X75235000Y50800000D03*
X72085000Y50800000D03*
D13*
X69760000Y50800000D03*
D14*
X77560000Y50800000D03*
%TD*%
D12*
%TO.C,D14*%
X132385000Y50800000D03*
X129235000Y50800000D03*
D13*
X126910000Y50800000D03*
D14*
X134710000Y50800000D03*
%TD*%
%TO.C,D15*%
X153760000Y50800000D03*
D13*
X145960000Y50800000D03*
D12*
X148285000Y50800000D03*
X151435000Y50800000D03*
%TD*%
D14*
%TO.C,D16*%
X172810000Y50800000D03*
D13*
X165010000Y50800000D03*
D12*
X167335000Y50800000D03*
X170485000Y50800000D03*
%TD*%
%TO.C,D17*%
X189535000Y50800000D03*
X186385000Y50800000D03*
D13*
X184060000Y50800000D03*
D14*
X191860000Y50800000D03*
%TD*%
%TO.C,D22*%
X68035000Y31750000D03*
D13*
X60235000Y31750000D03*
D12*
X62560000Y31750000D03*
X65710000Y31750000D03*
%TD*%
%TO.C,D23*%
X84760000Y31750000D03*
X81610000Y31750000D03*
D13*
X79285000Y31750000D03*
D14*
X87085000Y31750000D03*
%TD*%
D12*
%TO.C,D24*%
X122860000Y31750000D03*
X119710000Y31750000D03*
D13*
X117385000Y31750000D03*
D14*
X125185000Y31750000D03*
%TD*%
D12*
%TO.C,D25*%
X141910000Y31750000D03*
X138760000Y31750000D03*
D13*
X136435000Y31750000D03*
D14*
X144235000Y31750000D03*
%TD*%
%TO.C,K00*%
G36*
G01*
X17783171Y73715691D02*
X17822619Y74294347D01*
G75*
G02*
X19154743Y75456433I1247105J-85019D01*
G01*
X19154743Y75456433D01*
G75*
G02*
X20316829Y74124309I-85019J-1247105D01*
G01*
X20277381Y73545653D01*
G75*
G02*
X18945257Y72383567I-1247105J85019D01*
G01*
X18945257Y72383567D01*
G75*
G02*
X17783171Y73715691I85019J1247105D01*
G01*
G37*
G36*
G01*
X11616299Y72372810D02*
X12825223Y74270440D01*
G75*
G02*
X14551087Y74653054I1054239J-671625D01*
G01*
X14551087Y74653054D01*
G75*
G02*
X14933701Y72927190I-671625J-1054239D01*
G01*
X13724777Y71029560D01*
G75*
G02*
X11998913Y70646946I-1054239J671625D01*
G01*
X11998913Y70646946D01*
G75*
G02*
X11616299Y72372810I671625J1054239D01*
G01*
G37*
D15*
X21610000Y69130000D03*
X11450000Y69130000D03*
D16*
X16530000Y69130000D03*
%TD*%
%TO.C,K01*%
X35580000Y69130000D03*
D15*
X30500000Y69130000D03*
X40660000Y69130000D03*
G36*
G01*
X30666299Y72372810D02*
X31875223Y74270440D01*
G75*
G02*
X33601087Y74653054I1054239J-671625D01*
G01*
X33601087Y74653054D01*
G75*
G02*
X33983701Y72927190I-671625J-1054239D01*
G01*
X32774777Y71029560D01*
G75*
G02*
X31048913Y70646946I-1054239J671625D01*
G01*
X31048913Y70646946D01*
G75*
G02*
X30666299Y72372810I671625J1054239D01*
G01*
G37*
G36*
G01*
X36833171Y73715691D02*
X36872619Y74294347D01*
G75*
G02*
X38204743Y75456433I1247105J-85019D01*
G01*
X38204743Y75456433D01*
G75*
G02*
X39366829Y74124309I-85019J-1247105D01*
G01*
X39327381Y73545653D01*
G75*
G02*
X37995257Y72383567I-1247105J85019D01*
G01*
X37995257Y72383567D01*
G75*
G02*
X36833171Y73715691I85019J1247105D01*
G01*
G37*
%TD*%
%TO.C,K02*%
G36*
G01*
X55883171Y73715691D02*
X55922619Y74294347D01*
G75*
G02*
X57254743Y75456433I1247105J-85019D01*
G01*
X57254743Y75456433D01*
G75*
G02*
X58416829Y74124309I-85019J-1247105D01*
G01*
X58377381Y73545653D01*
G75*
G02*
X57045257Y72383567I-1247105J85019D01*
G01*
X57045257Y72383567D01*
G75*
G02*
X55883171Y73715691I85019J1247105D01*
G01*
G37*
G36*
G01*
X49716299Y72372810D02*
X50925223Y74270440D01*
G75*
G02*
X52651087Y74653054I1054239J-671625D01*
G01*
X52651087Y74653054D01*
G75*
G02*
X53033701Y72927190I-671625J-1054239D01*
G01*
X51824777Y71029560D01*
G75*
G02*
X50098913Y70646946I-1054239J671625D01*
G01*
X50098913Y70646946D01*
G75*
G02*
X49716299Y72372810I671625J1054239D01*
G01*
G37*
X59710000Y69130000D03*
X49550000Y69130000D03*
D16*
X54630000Y69130000D03*
%TD*%
%TO.C,K03*%
X73680000Y69130000D03*
D15*
X68600000Y69130000D03*
X78760000Y69130000D03*
G36*
G01*
X68766299Y72372810D02*
X69975223Y74270440D01*
G75*
G02*
X71701087Y74653054I1054239J-671625D01*
G01*
X71701087Y74653054D01*
G75*
G02*
X72083701Y72927190I-671625J-1054239D01*
G01*
X70874777Y71029560D01*
G75*
G02*
X69148913Y70646946I-1054239J671625D01*
G01*
X69148913Y70646946D01*
G75*
G02*
X68766299Y72372810I671625J1054239D01*
G01*
G37*
G36*
G01*
X74933171Y73715691D02*
X74972619Y74294347D01*
G75*
G02*
X76304743Y75456433I1247105J-85019D01*
G01*
X76304743Y75456433D01*
G75*
G02*
X77466829Y74124309I-85019J-1247105D01*
G01*
X77427381Y73545653D01*
G75*
G02*
X76095257Y72383567I-1247105J85019D01*
G01*
X76095257Y72383567D01*
G75*
G02*
X74933171Y73715691I85019J1247105D01*
G01*
G37*
%TD*%
%TO.C,K04*%
G36*
G01*
X132083171Y73715691D02*
X132122619Y74294347D01*
G75*
G02*
X133454743Y75456433I1247105J-85019D01*
G01*
X133454743Y75456433D01*
G75*
G02*
X134616829Y74124309I-85019J-1247105D01*
G01*
X134577381Y73545653D01*
G75*
G02*
X133245257Y72383567I-1247105J85019D01*
G01*
X133245257Y72383567D01*
G75*
G02*
X132083171Y73715691I85019J1247105D01*
G01*
G37*
G36*
G01*
X125916299Y72372810D02*
X127125223Y74270440D01*
G75*
G02*
X128851087Y74653054I1054239J-671625D01*
G01*
X128851087Y74653054D01*
G75*
G02*
X129233701Y72927190I-671625J-1054239D01*
G01*
X128024777Y71029560D01*
G75*
G02*
X126298913Y70646946I-1054239J671625D01*
G01*
X126298913Y70646946D01*
G75*
G02*
X125916299Y72372810I671625J1054239D01*
G01*
G37*
X135910000Y69130000D03*
X125750000Y69130000D03*
D16*
X130830000Y69130000D03*
%TD*%
%TO.C,K05*%
X149880000Y69130000D03*
D15*
X144800000Y69130000D03*
X154960000Y69130000D03*
G36*
G01*
X144966299Y72372810D02*
X146175223Y74270440D01*
G75*
G02*
X147901087Y74653054I1054239J-671625D01*
G01*
X147901087Y74653054D01*
G75*
G02*
X148283701Y72927190I-671625J-1054239D01*
G01*
X147074777Y71029560D01*
G75*
G02*
X145348913Y70646946I-1054239J671625D01*
G01*
X145348913Y70646946D01*
G75*
G02*
X144966299Y72372810I671625J1054239D01*
G01*
G37*
G36*
G01*
X151133171Y73715691D02*
X151172619Y74294347D01*
G75*
G02*
X152504743Y75456433I1247105J-85019D01*
G01*
X152504743Y75456433D01*
G75*
G02*
X153666829Y74124309I-85019J-1247105D01*
G01*
X153627381Y73545653D01*
G75*
G02*
X152295257Y72383567I-1247105J85019D01*
G01*
X152295257Y72383567D01*
G75*
G02*
X151133171Y73715691I85019J1247105D01*
G01*
G37*
%TD*%
%TO.C,K06*%
G36*
G01*
X170183171Y73715691D02*
X170222619Y74294347D01*
G75*
G02*
X171554743Y75456433I1247105J-85019D01*
G01*
X171554743Y75456433D01*
G75*
G02*
X172716829Y74124309I-85019J-1247105D01*
G01*
X172677381Y73545653D01*
G75*
G02*
X171345257Y72383567I-1247105J85019D01*
G01*
X171345257Y72383567D01*
G75*
G02*
X170183171Y73715691I85019J1247105D01*
G01*
G37*
G36*
G01*
X164016299Y72372810D02*
X165225223Y74270440D01*
G75*
G02*
X166951087Y74653054I1054239J-671625D01*
G01*
X166951087Y74653054D01*
G75*
G02*
X167333701Y72927190I-671625J-1054239D01*
G01*
X166124777Y71029560D01*
G75*
G02*
X164398913Y70646946I-1054239J671625D01*
G01*
X164398913Y70646946D01*
G75*
G02*
X164016299Y72372810I671625J1054239D01*
G01*
G37*
X174010000Y69130000D03*
X163850000Y69130000D03*
D16*
X168930000Y69130000D03*
%TD*%
%TO.C,K07*%
X187980000Y69130000D03*
D15*
X182900000Y69130000D03*
X193060000Y69130000D03*
G36*
G01*
X183066299Y72372810D02*
X184275223Y74270440D01*
G75*
G02*
X186001087Y74653054I1054239J-671625D01*
G01*
X186001087Y74653054D01*
G75*
G02*
X186383701Y72927190I-671625J-1054239D01*
G01*
X185174777Y71029560D01*
G75*
G02*
X183448913Y70646946I-1054239J671625D01*
G01*
X183448913Y70646946D01*
G75*
G02*
X183066299Y72372810I671625J1054239D01*
G01*
G37*
G36*
G01*
X189233171Y73715691D02*
X189272619Y74294347D01*
G75*
G02*
X190604743Y75456433I1247105J-85019D01*
G01*
X190604743Y75456433D01*
G75*
G02*
X191766829Y74124309I-85019J-1247105D01*
G01*
X191727381Y73545653D01*
G75*
G02*
X190395257Y72383567I-1247105J85019D01*
G01*
X190395257Y72383567D01*
G75*
G02*
X189233171Y73715691I85019J1247105D01*
G01*
G37*
%TD*%
%TO.C,K11*%
G36*
G01*
X36833171Y45135691D02*
X36872619Y45714347D01*
G75*
G02*
X38204743Y46876433I1247105J-85019D01*
G01*
X38204743Y46876433D01*
G75*
G02*
X39366829Y45544309I-85019J-1247105D01*
G01*
X39327381Y44965653D01*
G75*
G02*
X37995257Y43803567I-1247105J85019D01*
G01*
X37995257Y43803567D01*
G75*
G02*
X36833171Y45135691I85019J1247105D01*
G01*
G37*
G36*
G01*
X30666299Y43792810D02*
X31875223Y45690440D01*
G75*
G02*
X33601087Y46073054I1054239J-671625D01*
G01*
X33601087Y46073054D01*
G75*
G02*
X33983701Y44347190I-671625J-1054239D01*
G01*
X32774777Y42449560D01*
G75*
G02*
X31048913Y42066946I-1054239J671625D01*
G01*
X31048913Y42066946D01*
G75*
G02*
X30666299Y43792810I671625J1054239D01*
G01*
G37*
X40660000Y40550000D03*
X30500000Y40550000D03*
D16*
X35580000Y40550000D03*
%TD*%
%TO.C,K12*%
X54630000Y40550000D03*
D15*
X49550000Y40550000D03*
X59710000Y40550000D03*
G36*
G01*
X49716299Y43792810D02*
X50925223Y45690440D01*
G75*
G02*
X52651087Y46073054I1054239J-671625D01*
G01*
X52651087Y46073054D01*
G75*
G02*
X53033701Y44347190I-671625J-1054239D01*
G01*
X51824777Y42449560D01*
G75*
G02*
X50098913Y42066946I-1054239J671625D01*
G01*
X50098913Y42066946D01*
G75*
G02*
X49716299Y43792810I671625J1054239D01*
G01*
G37*
G36*
G01*
X55883171Y45135691D02*
X55922619Y45714347D01*
G75*
G02*
X57254743Y46876433I1247105J-85019D01*
G01*
X57254743Y46876433D01*
G75*
G02*
X58416829Y45544309I-85019J-1247105D01*
G01*
X58377381Y44965653D01*
G75*
G02*
X57045257Y43803567I-1247105J85019D01*
G01*
X57045257Y43803567D01*
G75*
G02*
X55883171Y45135691I85019J1247105D01*
G01*
G37*
%TD*%
%TO.C,K13*%
G36*
G01*
X74933171Y45135691D02*
X74972619Y45714347D01*
G75*
G02*
X76304743Y46876433I1247105J-85019D01*
G01*
X76304743Y46876433D01*
G75*
G02*
X77466829Y45544309I-85019J-1247105D01*
G01*
X77427381Y44965653D01*
G75*
G02*
X76095257Y43803567I-1247105J85019D01*
G01*
X76095257Y43803567D01*
G75*
G02*
X74933171Y45135691I85019J1247105D01*
G01*
G37*
G36*
G01*
X68766299Y43792810D02*
X69975223Y45690440D01*
G75*
G02*
X71701087Y46073054I1054239J-671625D01*
G01*
X71701087Y46073054D01*
G75*
G02*
X72083701Y44347190I-671625J-1054239D01*
G01*
X70874777Y42449560D01*
G75*
G02*
X69148913Y42066946I-1054239J671625D01*
G01*
X69148913Y42066946D01*
G75*
G02*
X68766299Y43792810I671625J1054239D01*
G01*
G37*
X78760000Y40550000D03*
X68600000Y40550000D03*
D16*
X73680000Y40550000D03*
%TD*%
%TO.C,K14*%
X130830000Y40550000D03*
D15*
X125750000Y40550000D03*
X135910000Y40550000D03*
G36*
G01*
X125916299Y43792810D02*
X127125223Y45690440D01*
G75*
G02*
X128851087Y46073054I1054239J-671625D01*
G01*
X128851087Y46073054D01*
G75*
G02*
X129233701Y44347190I-671625J-1054239D01*
G01*
X128024777Y42449560D01*
G75*
G02*
X126298913Y42066946I-1054239J671625D01*
G01*
X126298913Y42066946D01*
G75*
G02*
X125916299Y43792810I671625J1054239D01*
G01*
G37*
G36*
G01*
X132083171Y45135691D02*
X132122619Y45714347D01*
G75*
G02*
X133454743Y46876433I1247105J-85019D01*
G01*
X133454743Y46876433D01*
G75*
G02*
X134616829Y45544309I-85019J-1247105D01*
G01*
X134577381Y44965653D01*
G75*
G02*
X133245257Y43803567I-1247105J85019D01*
G01*
X133245257Y43803567D01*
G75*
G02*
X132083171Y45135691I85019J1247105D01*
G01*
G37*
%TD*%
%TO.C,K15*%
G36*
G01*
X151133171Y45135691D02*
X151172619Y45714347D01*
G75*
G02*
X152504743Y46876433I1247105J-85019D01*
G01*
X152504743Y46876433D01*
G75*
G02*
X153666829Y45544309I-85019J-1247105D01*
G01*
X153627381Y44965653D01*
G75*
G02*
X152295257Y43803567I-1247105J85019D01*
G01*
X152295257Y43803567D01*
G75*
G02*
X151133171Y45135691I85019J1247105D01*
G01*
G37*
G36*
G01*
X144966299Y43792810D02*
X146175223Y45690440D01*
G75*
G02*
X147901087Y46073054I1054239J-671625D01*
G01*
X147901087Y46073054D01*
G75*
G02*
X148283701Y44347190I-671625J-1054239D01*
G01*
X147074777Y42449560D01*
G75*
G02*
X145348913Y42066946I-1054239J671625D01*
G01*
X145348913Y42066946D01*
G75*
G02*
X144966299Y43792810I671625J1054239D01*
G01*
G37*
X154960000Y40550000D03*
X144800000Y40550000D03*
D16*
X149880000Y40550000D03*
%TD*%
%TO.C,K16*%
X168930000Y40550000D03*
D15*
X163850000Y40550000D03*
X174010000Y40550000D03*
G36*
G01*
X164016299Y43792810D02*
X165225223Y45690440D01*
G75*
G02*
X166951087Y46073054I1054239J-671625D01*
G01*
X166951087Y46073054D01*
G75*
G02*
X167333701Y44347190I-671625J-1054239D01*
G01*
X166124777Y42449560D01*
G75*
G02*
X164398913Y42066946I-1054239J671625D01*
G01*
X164398913Y42066946D01*
G75*
G02*
X164016299Y43792810I671625J1054239D01*
G01*
G37*
G36*
G01*
X170183171Y45135691D02*
X170222619Y45714347D01*
G75*
G02*
X171554743Y46876433I1247105J-85019D01*
G01*
X171554743Y46876433D01*
G75*
G02*
X172716829Y45544309I-85019J-1247105D01*
G01*
X172677381Y44965653D01*
G75*
G02*
X171345257Y43803567I-1247105J85019D01*
G01*
X171345257Y43803567D01*
G75*
G02*
X170183171Y45135691I85019J1247105D01*
G01*
G37*
%TD*%
%TO.C,K17*%
G36*
G01*
X189233171Y45135691D02*
X189272619Y45714347D01*
G75*
G02*
X190604743Y46876433I1247105J-85019D01*
G01*
X190604743Y46876433D01*
G75*
G02*
X191766829Y45544309I-85019J-1247105D01*
G01*
X191727381Y44965653D01*
G75*
G02*
X190395257Y43803567I-1247105J85019D01*
G01*
X190395257Y43803567D01*
G75*
G02*
X189233171Y45135691I85019J1247105D01*
G01*
G37*
G36*
G01*
X183066299Y43792810D02*
X184275223Y45690440D01*
G75*
G02*
X186001087Y46073054I1054239J-671625D01*
G01*
X186001087Y46073054D01*
G75*
G02*
X186383701Y44347190I-671625J-1054239D01*
G01*
X185174777Y42449560D01*
G75*
G02*
X183448913Y42066946I-1054239J671625D01*
G01*
X183448913Y42066946D01*
G75*
G02*
X183066299Y43792810I671625J1054239D01*
G01*
G37*
X193060000Y40550000D03*
X182900000Y40550000D03*
D16*
X187980000Y40550000D03*
%TD*%
%TO.C,K22*%
X64150000Y21550000D03*
D15*
X59070000Y21550000D03*
X69230000Y21550000D03*
G36*
G01*
X59236299Y24792810D02*
X60445223Y26690440D01*
G75*
G02*
X62171087Y27073054I1054239J-671625D01*
G01*
X62171087Y27073054D01*
G75*
G02*
X62553701Y25347190I-671625J-1054239D01*
G01*
X61344777Y23449560D01*
G75*
G02*
X59618913Y23066946I-1054239J671625D01*
G01*
X59618913Y23066946D01*
G75*
G02*
X59236299Y24792810I671625J1054239D01*
G01*
G37*
G36*
G01*
X65403171Y26135691D02*
X65442619Y26714347D01*
G75*
G02*
X66774743Y27876433I1247105J-85019D01*
G01*
X66774743Y27876433D01*
G75*
G02*
X67936829Y26544309I-85019J-1247105D01*
G01*
X67897381Y25965653D01*
G75*
G02*
X66565257Y24803567I-1247105J85019D01*
G01*
X66565257Y24803567D01*
G75*
G02*
X65403171Y26135691I85019J1247105D01*
G01*
G37*
%TD*%
D16*
%TO.C,K23*%
X83200000Y21500000D03*
D15*
X78120000Y21500000D03*
X88280000Y21500000D03*
G36*
G01*
X78286299Y24742810D02*
X79495223Y26640440D01*
G75*
G02*
X81221087Y27023054I1054239J-671625D01*
G01*
X81221087Y27023054D01*
G75*
G02*
X81603701Y25297190I-671625J-1054239D01*
G01*
X80394777Y23399560D01*
G75*
G02*
X78668913Y23016946I-1054239J671625D01*
G01*
X78668913Y23016946D01*
G75*
G02*
X78286299Y24742810I671625J1054239D01*
G01*
G37*
G36*
G01*
X84453171Y26085691D02*
X84492619Y26664347D01*
G75*
G02*
X85824743Y27826433I1247105J-85019D01*
G01*
X85824743Y27826433D01*
G75*
G02*
X86986829Y26494309I-85019J-1247105D01*
G01*
X86947381Y25915653D01*
G75*
G02*
X85615257Y24753567I-1247105J85019D01*
G01*
X85615257Y24753567D01*
G75*
G02*
X84453171Y26085691I85019J1247105D01*
G01*
G37*
%TD*%
%TO.C,K24*%
G36*
G01*
X122553171Y26085691D02*
X122592619Y26664347D01*
G75*
G02*
X123924743Y27826433I1247105J-85019D01*
G01*
X123924743Y27826433D01*
G75*
G02*
X125086829Y26494309I-85019J-1247105D01*
G01*
X125047381Y25915653D01*
G75*
G02*
X123715257Y24753567I-1247105J85019D01*
G01*
X123715257Y24753567D01*
G75*
G02*
X122553171Y26085691I85019J1247105D01*
G01*
G37*
G36*
G01*
X116386299Y24742810D02*
X117595223Y26640440D01*
G75*
G02*
X119321087Y27023054I1054239J-671625D01*
G01*
X119321087Y27023054D01*
G75*
G02*
X119703701Y25297190I-671625J-1054239D01*
G01*
X118494777Y23399560D01*
G75*
G02*
X116768913Y23016946I-1054239J671625D01*
G01*
X116768913Y23016946D01*
G75*
G02*
X116386299Y24742810I671625J1054239D01*
G01*
G37*
X126380000Y21500000D03*
X116220000Y21500000D03*
D16*
X121300000Y21500000D03*
%TD*%
%TO.C,K25*%
G36*
G01*
X141603171Y26085691D02*
X141642619Y26664347D01*
G75*
G02*
X142974743Y27826433I1247105J-85019D01*
G01*
X142974743Y27826433D01*
G75*
G02*
X144136829Y26494309I-85019J-1247105D01*
G01*
X144097381Y25915653D01*
G75*
G02*
X142765257Y24753567I-1247105J85019D01*
G01*
X142765257Y24753567D01*
G75*
G02*
X141603171Y26085691I85019J1247105D01*
G01*
G37*
G36*
G01*
X135436299Y24742810D02*
X136645223Y26640440D01*
G75*
G02*
X138371087Y27023054I1054239J-671625D01*
G01*
X138371087Y27023054D01*
G75*
G02*
X138753701Y25297190I-671625J-1054239D01*
G01*
X137544777Y23399560D01*
G75*
G02*
X135818913Y23016946I-1054239J671625D01*
G01*
X135818913Y23016946D01*
G75*
G02*
X135436299Y24742810I671625J1054239D01*
G01*
G37*
D15*
X145430000Y21500000D03*
X135270000Y21500000D03*
D16*
X140350000Y21500000D03*
%TD*%
M02*
