%TF.GenerationSoftware,KiCad,Pcbnew,(5.1.10)-1*%
%TF.CreationDate,2021-10-15T02:03:14+09:00*%
%TF.ProjectId,orca_keyboard,6f726361-5f6b-4657-9962-6f6172642e6b,rev?*%
%TF.SameCoordinates,Original*%
%TF.FileFunction,Copper,L2,Bot*%
%TF.FilePolarity,Positive*%
%FSLAX46Y46*%
G04 Gerber Fmt 4.6, Leading zero omitted, Abs format (unit mm)*
G04 Created by KiCad (PCBNEW (5.1.10)-1) date 2021-10-15 02:03:14*
%MOMM*%
%LPD*%
G01*
G04 APERTURE LIST*
%TA.AperFunction,ComponentPad*%
%ADD10C,6.400000*%
%TD*%
%TA.AperFunction,ComponentPad*%
%ADD11C,1.879600*%
%TD*%
%TA.AperFunction,ComponentPad*%
%ADD12R,1.600000X1.600000*%
%TD*%
%TA.AperFunction,ComponentPad*%
%ADD13C,1.600000*%
%TD*%
%TA.AperFunction,ViaPad*%
%ADD14C,1.600000*%
%TD*%
%TA.AperFunction,Conductor*%
%ADD15C,0.500000*%
%TD*%
G04 APERTURE END LIST*
D10*
%TO.P,REF\u002A\u002A,1*%
%TO.N,N/C*%
X200400000Y86580000D03*
%TD*%
%TO.P,REF\u002A\u002A,1*%
%TO.N,N/C*%
X154860000Y86580000D03*
%TD*%
%TO.P,REF\u002A\u002A,1*%
%TO.N,N/C*%
X49620000Y86590000D03*
%TD*%
%TO.P,REF\u002A\u002A,1*%
%TO.N,N/C*%
X4070000Y86580000D03*
%TD*%
%TO.P,REF\u002A\u002A,1*%
%TO.N,N/C*%
X200410000Y4070000D03*
%TD*%
%TO.P,REF\u002A\u002A,1*%
%TO.N,N/C*%
X154840000Y4070000D03*
%TD*%
%TO.P,REF\u002A\u002A,1*%
%TO.N,N/C*%
X49620000Y4070000D03*
%TD*%
%TO.P,REF\u002A\u002A,1*%
%TO.N,N/C*%
X4070000Y4070000D03*
%TD*%
D11*
%TO.P,B1,1*%
%TO.N,Net-(B1-Pad1)*%
X94620000Y58030000D03*
%TO.P,B1,2*%
%TO.N,Net-(B1-Pad2)*%
X94620000Y55490000D03*
%TO.P,B1,3*%
%TO.N,Net-(B1-Pad3)*%
X94620000Y52950000D03*
%TO.P,B1,4*%
%TO.N,Net-(B1-Pad4)*%
X94620000Y50410000D03*
%TO.P,B1,5*%
%TO.N,Net-(B1-Pad5)*%
X94620000Y47870000D03*
%TO.P,B1,6*%
%TO.N,Net-(B1-Pad6)*%
X94620000Y45330000D03*
%TO.P,B1,7*%
%TO.N,Net-(B1-Pad7)*%
X94620000Y42790000D03*
%TO.P,B1,8*%
%TO.N,Net-(B1-Pad8)*%
X94620000Y40250000D03*
%TO.P,B1,9*%
%TO.N,Net-(B1-Pad9)*%
X94620000Y37710000D03*
%TO.P,B1,10*%
%TO.N,/row0*%
X94620000Y35170000D03*
%TO.P,B1,11*%
%TO.N,/row1*%
X94620000Y32630000D03*
%TO.P,B1,12*%
%TO.N,/row2*%
X94620000Y30090000D03*
%TO.P,B1,13*%
%TO.N,/col7*%
X109860000Y30090000D03*
%TO.P,B1,14*%
%TO.N,/col6*%
X109860000Y32630000D03*
%TO.P,B1,15*%
%TO.N,/col5*%
X109860000Y35170000D03*
%TO.P,B1,16*%
%TO.N,/col4*%
X109860000Y37710000D03*
%TO.P,B1,17*%
%TO.N,/col3*%
X109860000Y40250000D03*
%TO.P,B1,18*%
%TO.N,/col2*%
X109860000Y42790000D03*
%TO.P,B1,19*%
%TO.N,/col1*%
X109860000Y45330000D03*
%TO.P,B1,20*%
%TO.N,/col0*%
X109860000Y47870000D03*
%TO.P,B1,21*%
%TO.N,Net-(B1-Pad21)*%
X109860000Y50410000D03*
%TO.P,B1,22*%
%TO.N,Net-(B1-Pad22)*%
X109860000Y52950000D03*
%TO.P,B1,23*%
%TO.N,Net-(B1-Pad23)*%
X109860000Y55490000D03*
%TO.P,B1,24*%
%TO.N,Net-(B1-Pad24)*%
X109860000Y58030000D03*
%TD*%
D12*
%TO.P,D00,1*%
%TO.N,/row0*%
X12610000Y79375000D03*
D13*
%TO.P,D00,2*%
%TO.N,Net-(D00-Pad2)*%
X20410000Y79375000D03*
%TD*%
%TO.P,D01,2*%
%TO.N,Net-(D01-Pad2)*%
X39460000Y79375000D03*
D12*
%TO.P,D01,1*%
%TO.N,/row0*%
X31660000Y79375000D03*
%TD*%
%TO.P,D02,1*%
%TO.N,/row0*%
X50710000Y79375000D03*
D13*
%TO.P,D02,2*%
%TO.N,Net-(D02-Pad2)*%
X58510000Y79375000D03*
%TD*%
%TO.P,D03,2*%
%TO.N,Net-(D03-Pad2)*%
X77560000Y79375000D03*
D12*
%TO.P,D03,1*%
%TO.N,/row0*%
X69760000Y79375000D03*
%TD*%
D13*
%TO.P,D04,2*%
%TO.N,Net-(D04-Pad2)*%
X134710000Y79375000D03*
D12*
%TO.P,D04,1*%
%TO.N,/row0*%
X126910000Y79375000D03*
%TD*%
D13*
%TO.P,D05,2*%
%TO.N,Net-(D05-Pad2)*%
X153760000Y79375000D03*
D12*
%TO.P,D05,1*%
%TO.N,/row0*%
X145960000Y79375000D03*
%TD*%
%TO.P,D06,1*%
%TO.N,/row0*%
X165010000Y79375000D03*
D13*
%TO.P,D06,2*%
%TO.N,Net-(D06-Pad2)*%
X172810000Y79375000D03*
%TD*%
%TO.P,D07,2*%
%TO.N,Net-(D07-Pad2)*%
X192495000Y79375000D03*
D12*
%TO.P,D07,1*%
%TO.N,/row0*%
X184695000Y79375000D03*
%TD*%
%TO.P,D10,1*%
%TO.N,/row1*%
X12610000Y50800000D03*
D13*
%TO.P,D10,2*%
%TO.N,Net-(D10-Pad2)*%
X20410000Y50800000D03*
%TD*%
%TO.P,D11,2*%
%TO.N,Net-(D11-Pad2)*%
X39460000Y50800000D03*
D12*
%TO.P,D11,1*%
%TO.N,/row1*%
X31660000Y50800000D03*
%TD*%
D13*
%TO.P,D12,2*%
%TO.N,Net-(D12-Pad2)*%
X58510000Y50800000D03*
D12*
%TO.P,D12,1*%
%TO.N,/row1*%
X50710000Y50800000D03*
%TD*%
%TO.P,D13,1*%
%TO.N,/row1*%
X69760000Y50800000D03*
D13*
%TO.P,D13,2*%
%TO.N,Net-(D13-Pad2)*%
X77560000Y50800000D03*
%TD*%
D12*
%TO.P,D14,1*%
%TO.N,/row1*%
X126910000Y50800000D03*
D13*
%TO.P,D14,2*%
%TO.N,Net-(D14-Pad2)*%
X134710000Y50800000D03*
%TD*%
%TO.P,D15,2*%
%TO.N,Net-(D15-Pad2)*%
X153760000Y50800000D03*
D12*
%TO.P,D15,1*%
%TO.N,/row1*%
X145960000Y50800000D03*
%TD*%
D13*
%TO.P,D16,2*%
%TO.N,Net-(D16-Pad2)*%
X172810000Y50800000D03*
D12*
%TO.P,D16,1*%
%TO.N,/row1*%
X165010000Y50800000D03*
%TD*%
%TO.P,D17,1*%
%TO.N,/row1*%
X184060000Y50800000D03*
D13*
%TO.P,D17,2*%
%TO.N,Net-(D17-Pad2)*%
X191860000Y50800000D03*
%TD*%
%TO.P,D22,2*%
%TO.N,Net-(D22-Pad2)*%
X68035000Y31750000D03*
D12*
%TO.P,D22,1*%
%TO.N,/row2*%
X60235000Y31750000D03*
%TD*%
%TO.P,D23,1*%
%TO.N,/row2*%
X79285000Y31750000D03*
D13*
%TO.P,D23,2*%
%TO.N,Net-(D23-Pad2)*%
X87085000Y31750000D03*
%TD*%
D12*
%TO.P,D24,1*%
%TO.N,/row2*%
X117385000Y31750000D03*
D13*
%TO.P,D24,2*%
%TO.N,Net-(D24-Pad2)*%
X125185000Y31750000D03*
%TD*%
D12*
%TO.P,D25,1*%
%TO.N,/row2*%
X136435000Y31750000D03*
D13*
%TO.P,D25,2*%
%TO.N,Net-(D25-Pad2)*%
X144235000Y31750000D03*
%TD*%
%TO.P,K00,2*%
%TO.N,Net-(D00-Pad2)*%
%TA.AperFunction,ComponentPad*%
G36*
G01*
X17783171Y73715691D02*
X17822619Y74294347D01*
G75*
G02*
X19154743Y75456433I1247105J-85019D01*
G01*
X19154743Y75456433D01*
G75*
G02*
X20316829Y74124309I-85019J-1247105D01*
G01*
X20277381Y73545653D01*
G75*
G02*
X18945257Y72383567I-1247105J85019D01*
G01*
X18945257Y72383567D01*
G75*
G02*
X17783171Y73715691I85019J1247105D01*
G01*
G37*
%TD.AperFunction*%
%TO.P,K00,1*%
%TO.N,/col0*%
%TA.AperFunction,ComponentPad*%
G36*
G01*
X11616299Y72372810D02*
X12825223Y74270440D01*
G75*
G02*
X14551087Y74653054I1054239J-671625D01*
G01*
X14551087Y74653054D01*
G75*
G02*
X14933701Y72927190I-671625J-1054239D01*
G01*
X13724777Y71029560D01*
G75*
G02*
X11998913Y70646946I-1054239J671625D01*
G01*
X11998913Y70646946D01*
G75*
G02*
X11616299Y72372810I671625J1054239D01*
G01*
G37*
%TD.AperFunction*%
%TD*%
%TO.P,K01,1*%
%TO.N,/col1*%
%TA.AperFunction,ComponentPad*%
G36*
G01*
X30666299Y72372810D02*
X31875223Y74270440D01*
G75*
G02*
X33601087Y74653054I1054239J-671625D01*
G01*
X33601087Y74653054D01*
G75*
G02*
X33983701Y72927190I-671625J-1054239D01*
G01*
X32774777Y71029560D01*
G75*
G02*
X31048913Y70646946I-1054239J671625D01*
G01*
X31048913Y70646946D01*
G75*
G02*
X30666299Y72372810I671625J1054239D01*
G01*
G37*
%TD.AperFunction*%
%TO.P,K01,2*%
%TO.N,Net-(D01-Pad2)*%
%TA.AperFunction,ComponentPad*%
G36*
G01*
X36833171Y73715691D02*
X36872619Y74294347D01*
G75*
G02*
X38204743Y75456433I1247105J-85019D01*
G01*
X38204743Y75456433D01*
G75*
G02*
X39366829Y74124309I-85019J-1247105D01*
G01*
X39327381Y73545653D01*
G75*
G02*
X37995257Y72383567I-1247105J85019D01*
G01*
X37995257Y72383567D01*
G75*
G02*
X36833171Y73715691I85019J1247105D01*
G01*
G37*
%TD.AperFunction*%
%TD*%
%TO.P,K02,2*%
%TO.N,Net-(D02-Pad2)*%
%TA.AperFunction,ComponentPad*%
G36*
G01*
X55883171Y73715691D02*
X55922619Y74294347D01*
G75*
G02*
X57254743Y75456433I1247105J-85019D01*
G01*
X57254743Y75456433D01*
G75*
G02*
X58416829Y74124309I-85019J-1247105D01*
G01*
X58377381Y73545653D01*
G75*
G02*
X57045257Y72383567I-1247105J85019D01*
G01*
X57045257Y72383567D01*
G75*
G02*
X55883171Y73715691I85019J1247105D01*
G01*
G37*
%TD.AperFunction*%
%TO.P,K02,1*%
%TO.N,/col2*%
%TA.AperFunction,ComponentPad*%
G36*
G01*
X49716299Y72372810D02*
X50925223Y74270440D01*
G75*
G02*
X52651087Y74653054I1054239J-671625D01*
G01*
X52651087Y74653054D01*
G75*
G02*
X53033701Y72927190I-671625J-1054239D01*
G01*
X51824777Y71029560D01*
G75*
G02*
X50098913Y70646946I-1054239J671625D01*
G01*
X50098913Y70646946D01*
G75*
G02*
X49716299Y72372810I671625J1054239D01*
G01*
G37*
%TD.AperFunction*%
%TD*%
%TO.P,K03,1*%
%TO.N,/col3*%
%TA.AperFunction,ComponentPad*%
G36*
G01*
X68766299Y72372810D02*
X69975223Y74270440D01*
G75*
G02*
X71701087Y74653054I1054239J-671625D01*
G01*
X71701087Y74653054D01*
G75*
G02*
X72083701Y72927190I-671625J-1054239D01*
G01*
X70874777Y71029560D01*
G75*
G02*
X69148913Y70646946I-1054239J671625D01*
G01*
X69148913Y70646946D01*
G75*
G02*
X68766299Y72372810I671625J1054239D01*
G01*
G37*
%TD.AperFunction*%
%TO.P,K03,2*%
%TO.N,Net-(D03-Pad2)*%
%TA.AperFunction,ComponentPad*%
G36*
G01*
X74933171Y73715691D02*
X74972619Y74294347D01*
G75*
G02*
X76304743Y75456433I1247105J-85019D01*
G01*
X76304743Y75456433D01*
G75*
G02*
X77466829Y74124309I-85019J-1247105D01*
G01*
X77427381Y73545653D01*
G75*
G02*
X76095257Y72383567I-1247105J85019D01*
G01*
X76095257Y72383567D01*
G75*
G02*
X74933171Y73715691I85019J1247105D01*
G01*
G37*
%TD.AperFunction*%
%TD*%
%TO.P,K04,2*%
%TO.N,Net-(D04-Pad2)*%
%TA.AperFunction,ComponentPad*%
G36*
G01*
X132083171Y73715691D02*
X132122619Y74294347D01*
G75*
G02*
X133454743Y75456433I1247105J-85019D01*
G01*
X133454743Y75456433D01*
G75*
G02*
X134616829Y74124309I-85019J-1247105D01*
G01*
X134577381Y73545653D01*
G75*
G02*
X133245257Y72383567I-1247105J85019D01*
G01*
X133245257Y72383567D01*
G75*
G02*
X132083171Y73715691I85019J1247105D01*
G01*
G37*
%TD.AperFunction*%
%TO.P,K04,1*%
%TO.N,/col4*%
%TA.AperFunction,ComponentPad*%
G36*
G01*
X125916299Y72372810D02*
X127125223Y74270440D01*
G75*
G02*
X128851087Y74653054I1054239J-671625D01*
G01*
X128851087Y74653054D01*
G75*
G02*
X129233701Y72927190I-671625J-1054239D01*
G01*
X128024777Y71029560D01*
G75*
G02*
X126298913Y70646946I-1054239J671625D01*
G01*
X126298913Y70646946D01*
G75*
G02*
X125916299Y72372810I671625J1054239D01*
G01*
G37*
%TD.AperFunction*%
%TD*%
%TO.P,K05,1*%
%TO.N,/col5*%
%TA.AperFunction,ComponentPad*%
G36*
G01*
X144966299Y72372810D02*
X146175223Y74270440D01*
G75*
G02*
X147901087Y74653054I1054239J-671625D01*
G01*
X147901087Y74653054D01*
G75*
G02*
X148283701Y72927190I-671625J-1054239D01*
G01*
X147074777Y71029560D01*
G75*
G02*
X145348913Y70646946I-1054239J671625D01*
G01*
X145348913Y70646946D01*
G75*
G02*
X144966299Y72372810I671625J1054239D01*
G01*
G37*
%TD.AperFunction*%
%TO.P,K05,2*%
%TO.N,Net-(D05-Pad2)*%
%TA.AperFunction,ComponentPad*%
G36*
G01*
X151133171Y73715691D02*
X151172619Y74294347D01*
G75*
G02*
X152504743Y75456433I1247105J-85019D01*
G01*
X152504743Y75456433D01*
G75*
G02*
X153666829Y74124309I-85019J-1247105D01*
G01*
X153627381Y73545653D01*
G75*
G02*
X152295257Y72383567I-1247105J85019D01*
G01*
X152295257Y72383567D01*
G75*
G02*
X151133171Y73715691I85019J1247105D01*
G01*
G37*
%TD.AperFunction*%
%TD*%
%TO.P,K06,2*%
%TO.N,Net-(D06-Pad2)*%
%TA.AperFunction,ComponentPad*%
G36*
G01*
X170183171Y73715691D02*
X170222619Y74294347D01*
G75*
G02*
X171554743Y75456433I1247105J-85019D01*
G01*
X171554743Y75456433D01*
G75*
G02*
X172716829Y74124309I-85019J-1247105D01*
G01*
X172677381Y73545653D01*
G75*
G02*
X171345257Y72383567I-1247105J85019D01*
G01*
X171345257Y72383567D01*
G75*
G02*
X170183171Y73715691I85019J1247105D01*
G01*
G37*
%TD.AperFunction*%
%TO.P,K06,1*%
%TO.N,/col6*%
%TA.AperFunction,ComponentPad*%
G36*
G01*
X164016299Y72372810D02*
X165225223Y74270440D01*
G75*
G02*
X166951087Y74653054I1054239J-671625D01*
G01*
X166951087Y74653054D01*
G75*
G02*
X167333701Y72927190I-671625J-1054239D01*
G01*
X166124777Y71029560D01*
G75*
G02*
X164398913Y70646946I-1054239J671625D01*
G01*
X164398913Y70646946D01*
G75*
G02*
X164016299Y72372810I671625J1054239D01*
G01*
G37*
%TD.AperFunction*%
%TD*%
%TO.P,K07,1*%
%TO.N,/col7*%
%TA.AperFunction,ComponentPad*%
G36*
G01*
X183066299Y72372810D02*
X184275223Y74270440D01*
G75*
G02*
X186001087Y74653054I1054239J-671625D01*
G01*
X186001087Y74653054D01*
G75*
G02*
X186383701Y72927190I-671625J-1054239D01*
G01*
X185174777Y71029560D01*
G75*
G02*
X183448913Y70646946I-1054239J671625D01*
G01*
X183448913Y70646946D01*
G75*
G02*
X183066299Y72372810I671625J1054239D01*
G01*
G37*
%TD.AperFunction*%
%TO.P,K07,2*%
%TO.N,Net-(D07-Pad2)*%
%TA.AperFunction,ComponentPad*%
G36*
G01*
X189233171Y73715691D02*
X189272619Y74294347D01*
G75*
G02*
X190604743Y75456433I1247105J-85019D01*
G01*
X190604743Y75456433D01*
G75*
G02*
X191766829Y74124309I-85019J-1247105D01*
G01*
X191727381Y73545653D01*
G75*
G02*
X190395257Y72383567I-1247105J85019D01*
G01*
X190395257Y72383567D01*
G75*
G02*
X189233171Y73715691I85019J1247105D01*
G01*
G37*
%TD.AperFunction*%
%TD*%
%TO.P,K11,2*%
%TO.N,Net-(D11-Pad2)*%
%TA.AperFunction,ComponentPad*%
G36*
G01*
X36833171Y45135691D02*
X36872619Y45714347D01*
G75*
G02*
X38204743Y46876433I1247105J-85019D01*
G01*
X38204743Y46876433D01*
G75*
G02*
X39366829Y45544309I-85019J-1247105D01*
G01*
X39327381Y44965653D01*
G75*
G02*
X37995257Y43803567I-1247105J85019D01*
G01*
X37995257Y43803567D01*
G75*
G02*
X36833171Y45135691I85019J1247105D01*
G01*
G37*
%TD.AperFunction*%
%TO.P,K11,1*%
%TO.N,/col1*%
%TA.AperFunction,ComponentPad*%
G36*
G01*
X30666299Y43792810D02*
X31875223Y45690440D01*
G75*
G02*
X33601087Y46073054I1054239J-671625D01*
G01*
X33601087Y46073054D01*
G75*
G02*
X33983701Y44347190I-671625J-1054239D01*
G01*
X32774777Y42449560D01*
G75*
G02*
X31048913Y42066946I-1054239J671625D01*
G01*
X31048913Y42066946D01*
G75*
G02*
X30666299Y43792810I671625J1054239D01*
G01*
G37*
%TD.AperFunction*%
%TD*%
%TO.P,K12,1*%
%TO.N,/col2*%
%TA.AperFunction,ComponentPad*%
G36*
G01*
X49716299Y43792810D02*
X50925223Y45690440D01*
G75*
G02*
X52651087Y46073054I1054239J-671625D01*
G01*
X52651087Y46073054D01*
G75*
G02*
X53033701Y44347190I-671625J-1054239D01*
G01*
X51824777Y42449560D01*
G75*
G02*
X50098913Y42066946I-1054239J671625D01*
G01*
X50098913Y42066946D01*
G75*
G02*
X49716299Y43792810I671625J1054239D01*
G01*
G37*
%TD.AperFunction*%
%TO.P,K12,2*%
%TO.N,Net-(D12-Pad2)*%
%TA.AperFunction,ComponentPad*%
G36*
G01*
X55883171Y45135691D02*
X55922619Y45714347D01*
G75*
G02*
X57254743Y46876433I1247105J-85019D01*
G01*
X57254743Y46876433D01*
G75*
G02*
X58416829Y45544309I-85019J-1247105D01*
G01*
X58377381Y44965653D01*
G75*
G02*
X57045257Y43803567I-1247105J85019D01*
G01*
X57045257Y43803567D01*
G75*
G02*
X55883171Y45135691I85019J1247105D01*
G01*
G37*
%TD.AperFunction*%
%TD*%
%TO.P,K13,2*%
%TO.N,Net-(D13-Pad2)*%
%TA.AperFunction,ComponentPad*%
G36*
G01*
X74933171Y45135691D02*
X74972619Y45714347D01*
G75*
G02*
X76304743Y46876433I1247105J-85019D01*
G01*
X76304743Y46876433D01*
G75*
G02*
X77466829Y45544309I-85019J-1247105D01*
G01*
X77427381Y44965653D01*
G75*
G02*
X76095257Y43803567I-1247105J85019D01*
G01*
X76095257Y43803567D01*
G75*
G02*
X74933171Y45135691I85019J1247105D01*
G01*
G37*
%TD.AperFunction*%
%TO.P,K13,1*%
%TO.N,/col3*%
%TA.AperFunction,ComponentPad*%
G36*
G01*
X68766299Y43792810D02*
X69975223Y45690440D01*
G75*
G02*
X71701087Y46073054I1054239J-671625D01*
G01*
X71701087Y46073054D01*
G75*
G02*
X72083701Y44347190I-671625J-1054239D01*
G01*
X70874777Y42449560D01*
G75*
G02*
X69148913Y42066946I-1054239J671625D01*
G01*
X69148913Y42066946D01*
G75*
G02*
X68766299Y43792810I671625J1054239D01*
G01*
G37*
%TD.AperFunction*%
%TD*%
%TO.P,K14,1*%
%TO.N,/col4*%
%TA.AperFunction,ComponentPad*%
G36*
G01*
X125916299Y43792810D02*
X127125223Y45690440D01*
G75*
G02*
X128851087Y46073054I1054239J-671625D01*
G01*
X128851087Y46073054D01*
G75*
G02*
X129233701Y44347190I-671625J-1054239D01*
G01*
X128024777Y42449560D01*
G75*
G02*
X126298913Y42066946I-1054239J671625D01*
G01*
X126298913Y42066946D01*
G75*
G02*
X125916299Y43792810I671625J1054239D01*
G01*
G37*
%TD.AperFunction*%
%TO.P,K14,2*%
%TO.N,Net-(D14-Pad2)*%
%TA.AperFunction,ComponentPad*%
G36*
G01*
X132083171Y45135691D02*
X132122619Y45714347D01*
G75*
G02*
X133454743Y46876433I1247105J-85019D01*
G01*
X133454743Y46876433D01*
G75*
G02*
X134616829Y45544309I-85019J-1247105D01*
G01*
X134577381Y44965653D01*
G75*
G02*
X133245257Y43803567I-1247105J85019D01*
G01*
X133245257Y43803567D01*
G75*
G02*
X132083171Y45135691I85019J1247105D01*
G01*
G37*
%TD.AperFunction*%
%TD*%
%TO.P,K15,2*%
%TO.N,Net-(D15-Pad2)*%
%TA.AperFunction,ComponentPad*%
G36*
G01*
X151133171Y45135691D02*
X151172619Y45714347D01*
G75*
G02*
X152504743Y46876433I1247105J-85019D01*
G01*
X152504743Y46876433D01*
G75*
G02*
X153666829Y45544309I-85019J-1247105D01*
G01*
X153627381Y44965653D01*
G75*
G02*
X152295257Y43803567I-1247105J85019D01*
G01*
X152295257Y43803567D01*
G75*
G02*
X151133171Y45135691I85019J1247105D01*
G01*
G37*
%TD.AperFunction*%
%TO.P,K15,1*%
%TO.N,/col5*%
%TA.AperFunction,ComponentPad*%
G36*
G01*
X144966299Y43792810D02*
X146175223Y45690440D01*
G75*
G02*
X147901087Y46073054I1054239J-671625D01*
G01*
X147901087Y46073054D01*
G75*
G02*
X148283701Y44347190I-671625J-1054239D01*
G01*
X147074777Y42449560D01*
G75*
G02*
X145348913Y42066946I-1054239J671625D01*
G01*
X145348913Y42066946D01*
G75*
G02*
X144966299Y43792810I671625J1054239D01*
G01*
G37*
%TD.AperFunction*%
%TD*%
%TO.P,K16,1*%
%TO.N,/col6*%
%TA.AperFunction,ComponentPad*%
G36*
G01*
X164016299Y43792810D02*
X165225223Y45690440D01*
G75*
G02*
X166951087Y46073054I1054239J-671625D01*
G01*
X166951087Y46073054D01*
G75*
G02*
X167333701Y44347190I-671625J-1054239D01*
G01*
X166124777Y42449560D01*
G75*
G02*
X164398913Y42066946I-1054239J671625D01*
G01*
X164398913Y42066946D01*
G75*
G02*
X164016299Y43792810I671625J1054239D01*
G01*
G37*
%TD.AperFunction*%
%TO.P,K16,2*%
%TO.N,Net-(D16-Pad2)*%
%TA.AperFunction,ComponentPad*%
G36*
G01*
X170183171Y45135691D02*
X170222619Y45714347D01*
G75*
G02*
X171554743Y46876433I1247105J-85019D01*
G01*
X171554743Y46876433D01*
G75*
G02*
X172716829Y45544309I-85019J-1247105D01*
G01*
X172677381Y44965653D01*
G75*
G02*
X171345257Y43803567I-1247105J85019D01*
G01*
X171345257Y43803567D01*
G75*
G02*
X170183171Y45135691I85019J1247105D01*
G01*
G37*
%TD.AperFunction*%
%TD*%
%TO.P,K17,2*%
%TO.N,Net-(D17-Pad2)*%
%TA.AperFunction,ComponentPad*%
G36*
G01*
X189233171Y45135691D02*
X189272619Y45714347D01*
G75*
G02*
X190604743Y46876433I1247105J-85019D01*
G01*
X190604743Y46876433D01*
G75*
G02*
X191766829Y45544309I-85019J-1247105D01*
G01*
X191727381Y44965653D01*
G75*
G02*
X190395257Y43803567I-1247105J85019D01*
G01*
X190395257Y43803567D01*
G75*
G02*
X189233171Y45135691I85019J1247105D01*
G01*
G37*
%TD.AperFunction*%
%TO.P,K17,1*%
%TO.N,/col7*%
%TA.AperFunction,ComponentPad*%
G36*
G01*
X183066299Y43792810D02*
X184275223Y45690440D01*
G75*
G02*
X186001087Y46073054I1054239J-671625D01*
G01*
X186001087Y46073054D01*
G75*
G02*
X186383701Y44347190I-671625J-1054239D01*
G01*
X185174777Y42449560D01*
G75*
G02*
X183448913Y42066946I-1054239J671625D01*
G01*
X183448913Y42066946D01*
G75*
G02*
X183066299Y43792810I671625J1054239D01*
G01*
G37*
%TD.AperFunction*%
%TD*%
%TO.P,K22,1*%
%TO.N,/col2*%
%TA.AperFunction,ComponentPad*%
G36*
G01*
X59236299Y24792810D02*
X60445223Y26690440D01*
G75*
G02*
X62171087Y27073054I1054239J-671625D01*
G01*
X62171087Y27073054D01*
G75*
G02*
X62553701Y25347190I-671625J-1054239D01*
G01*
X61344777Y23449560D01*
G75*
G02*
X59618913Y23066946I-1054239J671625D01*
G01*
X59618913Y23066946D01*
G75*
G02*
X59236299Y24792810I671625J1054239D01*
G01*
G37*
%TD.AperFunction*%
%TO.P,K22,2*%
%TO.N,Net-(D22-Pad2)*%
%TA.AperFunction,ComponentPad*%
G36*
G01*
X65403171Y26135691D02*
X65442619Y26714347D01*
G75*
G02*
X66774743Y27876433I1247105J-85019D01*
G01*
X66774743Y27876433D01*
G75*
G02*
X67936829Y26544309I-85019J-1247105D01*
G01*
X67897381Y25965653D01*
G75*
G02*
X66565257Y24803567I-1247105J85019D01*
G01*
X66565257Y24803567D01*
G75*
G02*
X65403171Y26135691I85019J1247105D01*
G01*
G37*
%TD.AperFunction*%
%TD*%
%TO.P,K23,1*%
%TO.N,/col3*%
%TA.AperFunction,ComponentPad*%
G36*
G01*
X78286299Y24742810D02*
X79495223Y26640440D01*
G75*
G02*
X81221087Y27023054I1054239J-671625D01*
G01*
X81221087Y27023054D01*
G75*
G02*
X81603701Y25297190I-671625J-1054239D01*
G01*
X80394777Y23399560D01*
G75*
G02*
X78668913Y23016946I-1054239J671625D01*
G01*
X78668913Y23016946D01*
G75*
G02*
X78286299Y24742810I671625J1054239D01*
G01*
G37*
%TD.AperFunction*%
%TO.P,K23,2*%
%TO.N,Net-(D23-Pad2)*%
%TA.AperFunction,ComponentPad*%
G36*
G01*
X84453171Y26085691D02*
X84492619Y26664347D01*
G75*
G02*
X85824743Y27826433I1247105J-85019D01*
G01*
X85824743Y27826433D01*
G75*
G02*
X86986829Y26494309I-85019J-1247105D01*
G01*
X86947381Y25915653D01*
G75*
G02*
X85615257Y24753567I-1247105J85019D01*
G01*
X85615257Y24753567D01*
G75*
G02*
X84453171Y26085691I85019J1247105D01*
G01*
G37*
%TD.AperFunction*%
%TD*%
%TO.P,K24,2*%
%TO.N,Net-(D24-Pad2)*%
%TA.AperFunction,ComponentPad*%
G36*
G01*
X122553171Y26085691D02*
X122592619Y26664347D01*
G75*
G02*
X123924743Y27826433I1247105J-85019D01*
G01*
X123924743Y27826433D01*
G75*
G02*
X125086829Y26494309I-85019J-1247105D01*
G01*
X125047381Y25915653D01*
G75*
G02*
X123715257Y24753567I-1247105J85019D01*
G01*
X123715257Y24753567D01*
G75*
G02*
X122553171Y26085691I85019J1247105D01*
G01*
G37*
%TD.AperFunction*%
%TO.P,K24,1*%
%TO.N,/col4*%
%TA.AperFunction,ComponentPad*%
G36*
G01*
X116386299Y24742810D02*
X117595223Y26640440D01*
G75*
G02*
X119321087Y27023054I1054239J-671625D01*
G01*
X119321087Y27023054D01*
G75*
G02*
X119703701Y25297190I-671625J-1054239D01*
G01*
X118494777Y23399560D01*
G75*
G02*
X116768913Y23016946I-1054239J671625D01*
G01*
X116768913Y23016946D01*
G75*
G02*
X116386299Y24742810I671625J1054239D01*
G01*
G37*
%TD.AperFunction*%
%TD*%
%TO.P,K25,2*%
%TO.N,Net-(D25-Pad2)*%
%TA.AperFunction,ComponentPad*%
G36*
G01*
X141603171Y26085691D02*
X141642619Y26664347D01*
G75*
G02*
X142974743Y27826433I1247105J-85019D01*
G01*
X142974743Y27826433D01*
G75*
G02*
X144136829Y26494309I-85019J-1247105D01*
G01*
X144097381Y25915653D01*
G75*
G02*
X142765257Y24753567I-1247105J85019D01*
G01*
X142765257Y24753567D01*
G75*
G02*
X141603171Y26085691I85019J1247105D01*
G01*
G37*
%TD.AperFunction*%
%TO.P,K25,1*%
%TO.N,/col5*%
%TA.AperFunction,ComponentPad*%
G36*
G01*
X135436299Y24742810D02*
X136645223Y26640440D01*
G75*
G02*
X138371087Y27023054I1054239J-671625D01*
G01*
X138371087Y27023054D01*
G75*
G02*
X138753701Y25297190I-671625J-1054239D01*
G01*
X137544777Y23399560D01*
G75*
G02*
X135818913Y23016946I-1054239J671625D01*
G01*
X135818913Y23016946D01*
G75*
G02*
X135436299Y24742810I671625J1054239D01*
G01*
G37*
%TD.AperFunction*%
%TD*%
D14*
%TO.N,/row1*%
X92075000Y60325000D03*
X112395000Y60325000D03*
X99060000Y60325000D03*
%TO.N,/row2*%
X83185000Y29845000D03*
X90170000Y29845000D03*
%TO.N,/col7*%
X184785000Y54610000D03*
X182245000Y48895000D03*
X121285000Y42545000D03*
X121285000Y50165000D03*
X130810000Y57150000D03*
X142240000Y57150000D03*
X149860000Y57150000D03*
X161290000Y57150000D03*
X168910000Y57150000D03*
%TO.N,/col6*%
X165735000Y54610000D03*
X163195000Y48895000D03*
X149860000Y59055000D03*
X142240000Y59055000D03*
X130810000Y59055000D03*
X119380000Y42545000D03*
X119380000Y50165000D03*
%TO.N,/col5*%
X146685000Y54610000D03*
X144145000Y48895000D03*
X146685000Y36195000D03*
X146685000Y29845000D03*
X130810000Y60960000D03*
X117475000Y58420000D03*
X117475000Y42545000D03*
%TO.N,/col4*%
X127635000Y54610000D03*
X125095000Y48895000D03*
X127635000Y36195000D03*
X127635000Y29845000D03*
X117475000Y62865000D03*
X115570000Y58420000D03*
X115570000Y42545000D03*
%TO.N,/col3*%
X70485000Y54610000D03*
X67945000Y48895000D03*
X70485000Y36195000D03*
X70485000Y29845000D03*
X73660000Y57785000D03*
X104140000Y69215000D03*
%TO.N,/col2*%
X51435000Y54610000D03*
X48895000Y48895000D03*
X51435000Y36195000D03*
X51435000Y29845000D03*
X66040000Y59159997D03*
X86995000Y67310000D03*
X92075000Y67310000D03*
X104140000Y66675000D03*
X106045000Y45720000D03*
%TO.N,/col1*%
X32385000Y54610000D03*
X29845000Y48895000D03*
X46990000Y60960000D03*
X54610000Y60960000D03*
X66040000Y60960000D03*
X73660000Y60960000D03*
X77470000Y60960000D03*
X81280000Y64770000D03*
X92075000Y64770000D03*
X104140000Y62865000D03*
X104140000Y51435000D03*
%TO.N,/col0*%
X27940000Y62865000D03*
X35560000Y62865000D03*
X46990000Y62865000D03*
X54610000Y62865000D03*
X66040000Y62865000D03*
X73660000Y62865000D03*
X92075000Y62865000D03*
X101600000Y62865000D03*
X101600000Y55880000D03*
%TD*%
D15*
%TO.N,/row1*%
X92075000Y60325000D02*
X112395000Y60325000D01*
%TO.N,/row2*%
X83185000Y29845000D02*
X90170000Y29845000D01*
%TO.N,/col7*%
X182245000Y52070000D02*
X182245000Y48895000D01*
X184785000Y54610000D02*
X182245000Y52070000D01*
X109860000Y30090000D02*
X121285000Y41515000D01*
X121285000Y41515000D02*
X121285000Y42545000D01*
X121285000Y50165000D02*
X121285000Y54610000D01*
X123825000Y57150000D02*
X130810000Y57150000D01*
X121285000Y54610000D02*
X123825000Y57150000D01*
X142240000Y57150000D02*
X149860000Y57150000D01*
X161290000Y57150000D02*
X168910000Y57150000D01*
%TO.N,/col6*%
X163195000Y52070000D02*
X163195000Y48895000D01*
X165735000Y54610000D02*
X163195000Y52070000D01*
X149860000Y59055000D02*
X142240000Y59055000D01*
X119380000Y42150000D02*
X109860000Y32630000D01*
X121285000Y59055000D02*
X119380000Y57150000D01*
X130810000Y59055000D02*
X121285000Y59055000D01*
X119380000Y42150000D02*
X119380000Y42545000D01*
X119380000Y57150000D02*
X119380000Y50165000D01*
%TO.N,/col5*%
X144145000Y52070000D02*
X144145000Y48895000D01*
X146685000Y54610000D02*
X144145000Y52070000D01*
X146685000Y36195000D02*
X146685000Y29845000D01*
X130810000Y60960000D02*
X120015000Y60960000D01*
X120015000Y60960000D02*
X117475000Y58420000D01*
X110100000Y35170000D02*
X109860000Y35170000D01*
X117475000Y42545000D02*
X110100000Y35170000D01*
%TO.N,/col4*%
X125095000Y52070000D02*
X125095000Y48895000D01*
X127635000Y54610000D02*
X125095000Y52070000D01*
X127635000Y36195000D02*
X127635000Y29845000D01*
X115570000Y60960000D02*
X115570000Y58420000D01*
X117475000Y62865000D02*
X115570000Y60960000D01*
X110735000Y37710000D02*
X109860000Y37710000D01*
X115570000Y42545000D02*
X110735000Y37710000D01*
%TO.N,/col3*%
X67945000Y52070000D02*
X67945000Y48895000D01*
X70485000Y54610000D02*
X67945000Y52070000D01*
X70485000Y36195000D02*
X70485000Y29845000D01*
X73660000Y57785000D02*
X80010000Y57785000D01*
X91440000Y69215000D02*
X104140000Y69215000D01*
X80010000Y57785000D02*
X91440000Y69215000D01*
%TO.N,/col2*%
X48895000Y52070000D02*
X48895000Y48895000D01*
X51435000Y54610000D02*
X48895000Y52070000D01*
X51435000Y36195000D02*
X51435000Y29845000D01*
X66040000Y59159997D02*
X78844997Y59159997D01*
X78844997Y59159997D02*
X86995000Y67310000D01*
X103505000Y67310000D02*
X104140000Y66675000D01*
X92075000Y67310000D02*
X103505000Y67310000D01*
X108975000Y42790000D02*
X109860000Y42790000D01*
X106045000Y45720000D02*
X108975000Y42790000D01*
%TO.N,/col1*%
X32385000Y54610000D02*
X29845000Y52070000D01*
X29845000Y52070000D02*
X29845000Y48895000D01*
X46990000Y60960000D02*
X54610000Y60960000D01*
X66040000Y60960000D02*
X73660000Y60960000D01*
X77470000Y60960000D02*
X81280000Y64770000D01*
X92075000Y64770000D02*
X101600000Y64770000D01*
X101600000Y64770000D02*
X102235000Y64770000D01*
X102235000Y64770000D02*
X104140000Y62865000D01*
X104140000Y51435000D02*
X104140000Y49530000D01*
X108340000Y45330000D02*
X109860000Y45330000D01*
X104140000Y49530000D02*
X108340000Y45330000D01*
%TO.N,/col0*%
X27940000Y62865000D02*
X35560000Y62865000D01*
X46990000Y62865000D02*
X54610000Y62865000D01*
X66040000Y62865000D02*
X73660000Y62865000D01*
X92075000Y62865000D02*
X101600000Y62865000D01*
X109610000Y47870000D02*
X109860000Y47870000D01*
X101600000Y55880000D02*
X109610000Y47870000D01*
%TD*%
M02*
