M48
; DRILL file {KiCad (5.1.10)-1} date 10/15/21 02:03:30
; FORMAT={-:-/ absolute / inch / decimal}
; #@! TF.CreationDate,2021-10-15T02:03:30+09:00
; #@! TF.GenerationSoftware,Kicad,Pcbnew,(5.1.10)-1
; #@! TF.FileFunction,NonPlated,1,2,NPTH
FMAT,2
INCH
T1C0.0670
T2C0.1570
%
G90
G05
T1
X0.4508Y2.7217
X0.8508Y2.7217
X1.2008Y2.7217
X1.2008Y1.5965
X1.6008Y2.7217
X1.6008Y1.5965
X1.9508Y2.7217
X1.9508Y1.5965
X2.3256Y0.8484
X2.3508Y2.7217
X2.3508Y1.5965
X2.7008Y2.7217
X2.7008Y1.5965
X2.7256Y0.8484
X3.0756Y0.8465
X3.1008Y2.7217
X3.1008Y1.5965
X3.4756Y0.8465
X4.5756Y0.8465
X4.9508Y2.7217
X4.9508Y1.5965
X4.9756Y0.8465
X5.3256Y0.8465
X5.3508Y2.7217
X5.3508Y1.5965
X5.7008Y2.7217
X5.7008Y1.5965
X5.7256Y0.8465
X6.1008Y2.7217
X6.1008Y1.5965
X6.4508Y2.7217
X6.4508Y1.5965
X6.8508Y2.7217
X6.8508Y1.5965
X7.2008Y2.7217
X7.2008Y1.5965
X7.6008Y2.7217
X7.6008Y1.5965
T2
X0.6508Y2.7217
X1.4008Y2.7217
X1.4008Y1.5965
X2.1508Y2.7217
X2.1508Y1.5965
X2.5256Y0.8484
X2.9008Y2.7217
X2.9008Y1.5965
X3.2756Y0.8465
X4.7756Y0.8465
X5.1508Y2.7217
X5.1508Y1.5965
X5.5256Y0.8465
X5.9008Y2.7217
X5.9008Y1.5965
X6.6508Y2.7217
X6.6508Y1.5965
X7.4008Y2.7217
X7.4008Y1.5965
T0
M30
