M48
; DRILL file {KiCad (5.1.10)-1} date 10/15/21 02:03:30
; FORMAT={-:-/ absolute / inch / decimal}
; #@! TF.CreationDate,2021-10-15T02:03:30+09:00
; #@! TF.GenerationSoftware,Kicad,Pcbnew,(5.1.10)-1
; #@! TF.FileFunction,Plated,1,2,PTH
FMAT,2
INCH
T1C0.0276
T2C0.0315
T3C0.0400
T4C0.0591
T5C0.1260
%
G90
G05
T1
X0.4965Y3.125
X0.4965Y2.0
X0.8035Y3.125
X0.8035Y2.0
X1.2465Y3.125
X1.2465Y2.0
X1.5535Y3.125
X1.5535Y2.0
X1.9965Y3.125
X1.9965Y2.0
X2.3035Y3.125
X2.3035Y2.0
X2.3715Y1.25
X2.6785Y1.25
X2.7465Y3.125
X2.7465Y2.0
X3.0535Y3.125
X3.0535Y2.0
X3.1215Y1.25
X3.4285Y1.25
X4.6215Y1.25
X4.9285Y1.25
X4.9965Y3.125
X4.9965Y2.0
X5.3035Y3.125
X5.3035Y2.0
X5.3715Y1.25
X5.6785Y1.25
X5.7465Y3.125
X5.7465Y2.0
X6.0535Y3.125
X6.0535Y2.0
X6.4965Y3.125
X6.4965Y2.0
X6.8035Y3.125
X6.8035Y2.0
X7.2465Y2.0
X7.2715Y3.125
X7.5535Y2.0
X7.5785Y3.125
T2
X1.1Y2.475
X1.175Y1.925
X1.275Y2.15
X1.4Y2.475
X1.85Y2.475
X1.85Y2.4
X1.925Y1.925
X2.025Y2.15
X2.025Y1.425
X2.025Y1.175
X2.15Y2.475
X2.15Y2.4
X2.6Y2.475
X2.6Y2.4
X2.6Y2.3291
X2.675Y1.925
X2.775Y2.15
X2.775Y1.425
X2.775Y1.175
X2.9Y2.475
X2.9Y2.4
X2.9Y2.275
X3.05Y2.4
X3.2Y2.55
X3.275Y1.175
X3.425Y2.65
X3.55Y1.175
X3.625Y2.65
X3.625Y2.55
X3.625Y2.475
X3.625Y2.375
X3.9Y2.375
X4.0Y2.475
X4.0Y2.2
X4.1Y2.725
X4.1Y2.625
X4.1Y2.475
X4.1Y2.025
X4.175Y1.8
X4.425Y2.375
X4.55Y2.3
X4.55Y1.675
X4.625Y2.475
X4.625Y2.3
X4.625Y1.675
X4.7Y1.975
X4.7Y1.675
X4.775Y1.975
X4.775Y1.675
X4.925Y1.925
X5.025Y2.15
X5.025Y1.425
X5.025Y1.175
X5.15Y2.4
X5.15Y2.325
X5.15Y2.25
X5.6Y2.325
X5.6Y2.25
X5.675Y1.925
X5.775Y2.15
X5.775Y1.425
X5.775Y1.175
X5.9Y2.325
X5.9Y2.25
X6.35Y2.25
X6.425Y1.925
X6.525Y2.15
X6.65Y2.25
X7.175Y1.925
X7.275Y2.15
T3
X3.7252Y2.2846
X3.7252Y2.1846
X3.7252Y2.0846
X3.7252Y1.9846
X3.7252Y1.8846
X3.7252Y1.7846
X3.7252Y1.6846
X3.7252Y1.5846
X3.7252Y1.4846
X3.7252Y1.3846
X3.7252Y1.2846
X3.7252Y1.1846
X4.3252Y2.2846
X4.3252Y2.1846
X4.3252Y2.0846
X4.3252Y1.9846
X4.3252Y1.8846
X4.3252Y1.7846
X4.3252Y1.6846
X4.3252Y1.5846
X4.3252Y1.4846
X4.3252Y1.3846
X4.3252Y1.2846
X4.3252Y1.1846
T5
X0.1602Y3.4087
X0.1602Y0.1602
X1.9535Y3.4091
X1.9535Y0.1602
X6.0961Y0.1602
X6.0969Y3.4087
X7.8898Y3.4087
X7.8902Y0.1602
T4
G00X0.5464Y2.8976
M15
G01X0.4988Y2.8229
M16
G05
G00X0.7508Y2.9216
M15
G01X0.7492Y2.8988
M16
G05
G00X1.2964Y2.8976
M15
G01X1.2488Y2.8229
M16
G05
G00X1.2964Y1.7724
M15
G01X1.2488Y1.6977
M16
G05
G00X1.5008Y2.9216
M15
G01X1.4992Y2.8988
M16
G05
G00X1.5008Y1.7964
M15
G01X1.4992Y1.7736
M16
G05
G00X2.0464Y2.8976
M15
G01X1.9988Y2.8229
M16
G05
G00X2.0464Y1.7724
M15
G01X1.9988Y1.6977
M16
G05
G00X2.2508Y2.9216
M15
G01X2.2492Y2.8988
M16
G05
G00X2.2508Y1.7964
M15
G01X2.2492Y1.7736
M16
G05
G00X2.4212Y1.0244
M15
G01X2.3736Y0.9497
M16
G05
G00X2.6256Y1.0484
M15
G01X2.624Y1.0256
M16
G05
G00X2.7964Y2.8976
M15
G01X2.7488Y2.8229
M16
G05
G00X2.7964Y1.7724
M15
G01X2.7488Y1.6977
M16
G05
G00X3.0008Y2.9216
M15
G01X2.9992Y2.8988
M16
G05
G00X3.0008Y1.7964
M15
G01X2.9992Y1.7736
M16
G05
G00X3.1712Y1.0224
M15
G01X3.1236Y0.9477
M16
G05
G00X3.3756Y1.0464
M15
G01X3.374Y1.0236
M16
G05
G00X4.6712Y1.0224
M15
G01X4.6236Y0.9477
M16
G05
G00X4.8756Y1.0464
M15
G01X4.874Y1.0236
M16
G05
G00X5.0464Y2.8976
M15
G01X4.9988Y2.8229
M16
G05
G00X5.0464Y1.7724
M15
G01X4.9988Y1.6977
M16
G05
G00X5.2508Y2.9216
M15
G01X5.2492Y2.8988
M16
G05
G00X5.2508Y1.7964
M15
G01X5.2492Y1.7736
M16
G05
G00X5.4212Y1.0224
M15
G01X5.3736Y0.9477
M16
G05
G00X5.6256Y1.0464
M15
G01X5.624Y1.0236
M16
G05
G00X5.7964Y2.8976
M15
G01X5.7488Y2.8229
M16
G05
G00X5.7964Y1.7724
M15
G01X5.7488Y1.6977
M16
G05
G00X6.0008Y2.9216
M15
G01X5.9992Y2.8988
M16
G05
G00X6.0008Y1.7964
M15
G01X5.9992Y1.7736
M16
G05
G00X6.5464Y2.8976
M15
G01X6.4988Y2.8229
M16
G05
G00X6.5464Y1.7724
M15
G01X6.4988Y1.6977
M16
G05
G00X6.7508Y2.9216
M15
G01X6.7492Y2.8988
M16
G05
G00X6.7508Y1.7964
M15
G01X6.7492Y1.7736
M16
G05
G00X7.2964Y2.8976
M15
G01X7.2488Y2.8229
M16
G05
G00X7.2964Y1.7724
M15
G01X7.2488Y1.6977
M16
G05
G00X7.5008Y2.9216
M15
G01X7.4992Y2.8988
M16
G05
G00X7.5008Y1.7964
M15
G01X7.4992Y1.7736
M16
G05
T0
M30
