M48
; DRILL file {KiCad (6.0.0)} date Mon Jan 10 09:23:45 2022
; FORMAT={-:-/ absolute / inch / decimal}
; #@! TF.CreationDate,2022-01-10T09:23:45+09:00
; #@! TF.GenerationSoftware,Kicad,Pcbnew,(6.0.0)
; #@! TF.FileFunction,Plated,1,2,PTH
FMAT,2
INCH
; #@! TA.AperFunction,Plated,PTH,ViaDrill
T1C0.0157
; #@! TA.AperFunction,Plated,PTH,ComponentDrill
T2C0.0276
; #@! TA.AperFunction,Plated,PTH,ComponentDrill
T3C0.0400
; #@! TA.AperFunction,Plated,PTH,ComponentDrill
T4C0.0591
; #@! TA.AperFunction,Plated,PTH,ComponentDrill
T5C0.1260
%
G90
G05
T1
X1.5551Y0.7579
X1.6142Y0.7579
X1.6437Y0.6693
X1.7028Y0.7579
X1.811Y0.7579
X1.9291Y0.4833
X1.9587Y0.7579
X2.0472Y0.4548
X2.2244Y0.4262
X2.313Y0.4035
T2
X0.2362Y2.6339
X0.2362Y2.3268
X0.2362Y1.5118
X0.2362Y1.2047
X0.9843Y2.6339
X0.9843Y2.3268
X0.9843Y1.5118
X0.9843Y1.2047
X1.7323Y2.6339
X1.7323Y2.3268
X1.7323Y1.5118
X1.7323Y1.2047
X2.2335Y0.2362
X2.4803Y2.6339
X2.4803Y2.3268
X2.4803Y1.5118
X2.4803Y1.2047
X2.5406Y0.2362
X3.1685Y0.2362
X3.4756Y0.2362
X4.4776Y0.2362
X4.7846Y0.2362
X5.4126Y0.2362
X5.4724Y2.6339
X5.4724Y2.3268
X5.4724Y1.5118
X5.4724Y1.2047
X5.7197Y0.2362
X6.2205Y2.6339
X6.2205Y2.3268
X6.2205Y1.5118
X6.2205Y1.2047
X6.9685Y2.6339
X6.9685Y2.3268
X6.9685Y1.5118
X6.9685Y1.2047
X7.7165Y2.6339
X7.7165Y2.3268
X7.7165Y1.5118
X7.7165Y1.2047
T3
X0.7303Y0.8807
X0.7303Y0.2807
X0.8303Y0.8807
X0.8303Y0.2807
X0.9303Y0.8807
X0.9303Y0.2807
X1.0303Y0.8807
X1.0303Y0.2807
X1.1303Y0.8807
X1.1303Y0.2807
X1.2303Y0.8807
X1.2303Y0.2807
X1.3303Y0.8807
X1.3303Y0.2807
X1.4303Y0.8807
X1.4303Y0.2807
X1.5303Y0.8807
X1.5303Y0.2807
X1.6303Y0.8807
X1.6303Y0.2807
X1.7303Y0.8807
X1.7303Y0.2807
X1.8303Y0.8807
X1.8303Y0.2807
T4
X0.4602Y2.5803
X0.4602Y1.4583
X0.7102Y2.6803
X0.7102Y1.5583
X1.2083Y2.5803
X1.2083Y1.4583
X1.4583Y2.6803
X1.4583Y1.5583
X1.9563Y2.5803
X1.9563Y1.4583
X2.2063Y2.6803
X2.2063Y1.5583
X2.237Y0.7102
X2.487Y0.8102
X2.7043Y2.5803
X2.7043Y1.4583
X2.9543Y2.6803
X2.9543Y1.5583
X3.172Y0.7102
X3.422Y0.8102
X4.4811Y0.7102
X4.7311Y0.8102
X4.9484Y2.5803
X4.9484Y1.4583
X5.1984Y2.6803
X5.1984Y1.5583
X5.4161Y0.7102
X5.6661Y0.8102
X5.6965Y2.5803
X5.6965Y1.4583
X5.9465Y2.6803
X5.9465Y1.5583
X6.4445Y2.5803
X6.4445Y1.4583
X6.6945Y2.6803
X6.6945Y1.5583
X7.1925Y2.5803
X7.1925Y1.4583
X7.4425Y2.6803
X7.4425Y1.5583
T5
X0.1673Y2.9232
X0.1673Y0.1673
X7.7854Y2.9232
X7.7854Y0.1673
T0
M30
