%TF.GenerationSoftware,KiCad,Pcbnew,(6.0.0)*%
%TF.CreationDate,2022-01-10T09:23:07+09:00*%
%TF.ProjectId,orca_pcb,6f726361-5f70-4636-922e-6b696361645f,rev?*%
%TF.SameCoordinates,Original*%
%TF.FileFunction,Legend,Bot*%
%TF.FilePolarity,Positive*%
%FSLAX46Y46*%
G04 Gerber Fmt 4.6, Leading zero omitted, Abs format (unit mm)*
G04 Created by KiCad (PCBNEW (6.0.0)) date 2022-01-10 09:23:07*
%MOMM*%
%LPD*%
G01*
G04 APERTURE LIST*
%ADD10C,0.127000*%
G04 APERTURE END LIST*
D10*
%TO.C,B0*%
X15966457Y14996742D02*
X15995485Y14909657D01*
X16024514Y14880628D01*
X16082571Y14851600D01*
X16169657Y14851600D01*
X16227714Y14880628D01*
X16256742Y14909657D01*
X16285771Y14967714D01*
X16285771Y15199942D01*
X15676171Y15199942D01*
X15676171Y14996742D01*
X15705200Y14938685D01*
X15734228Y14909657D01*
X15792285Y14880628D01*
X15850342Y14880628D01*
X15908400Y14909657D01*
X15937428Y14938685D01*
X15966457Y14996742D01*
X15966457Y15199942D01*
X15676171Y14474228D02*
X15676171Y14416171D01*
X15705200Y14358114D01*
X15734228Y14329085D01*
X15792285Y14300057D01*
X15908400Y14271028D01*
X16053542Y14271028D01*
X16169657Y14300057D01*
X16227714Y14329085D01*
X16256742Y14358114D01*
X16285771Y14416171D01*
X16285771Y14474228D01*
X16256742Y14532285D01*
X16227714Y14561314D01*
X16169657Y14590342D01*
X16053542Y14619371D01*
X15908400Y14619371D01*
X15792285Y14590342D01*
X15734228Y14561314D01*
X15705200Y14532285D01*
X15676171Y14474228D01*
X46736742Y19815485D02*
X46765771Y19728400D01*
X46765771Y19583257D01*
X46736742Y19525200D01*
X46707714Y19496171D01*
X46649657Y19467142D01*
X46591600Y19467142D01*
X46533542Y19496171D01*
X46504514Y19525200D01*
X46475485Y19583257D01*
X46446457Y19699371D01*
X46417428Y19757428D01*
X46388400Y19786457D01*
X46330342Y19815485D01*
X46272285Y19815485D01*
X46214228Y19786457D01*
X46185200Y19757428D01*
X46156171Y19699371D01*
X46156171Y19554228D01*
X46185200Y19467142D01*
X46765771Y19205885D02*
X46156171Y19205885D01*
X46156171Y18973657D01*
X46185200Y18915600D01*
X46214228Y18886571D01*
X46272285Y18857542D01*
X46359371Y18857542D01*
X46417428Y18886571D01*
X46446457Y18915600D01*
X46475485Y18973657D01*
X46475485Y19205885D01*
X46591600Y18625314D02*
X46591600Y18335028D01*
X46765771Y18683371D02*
X46156171Y18480171D01*
X46765771Y18276971D01*
X46765771Y17725428D02*
X46475485Y17928628D01*
X46765771Y18073771D02*
X46156171Y18073771D01*
X46156171Y17841542D01*
X46185200Y17783485D01*
X46214228Y17754457D01*
X46272285Y17725428D01*
X46359371Y17725428D01*
X46417428Y17754457D01*
X46446457Y17783485D01*
X46475485Y17841542D01*
X46475485Y18073771D01*
X46765771Y17464171D02*
X46156171Y17464171D01*
X46765771Y17115828D02*
X46417428Y17377085D01*
X46156171Y17115828D02*
X46504514Y17464171D01*
X46446457Y16651371D02*
X46446457Y16854571D01*
X46765771Y16854571D02*
X46156171Y16854571D01*
X46156171Y16564285D01*
X46156171Y16332057D02*
X46649657Y16332057D01*
X46707714Y16303028D01*
X46736742Y16274000D01*
X46765771Y16215942D01*
X46765771Y16099828D01*
X46736742Y16041771D01*
X46707714Y16012742D01*
X46649657Y15983714D01*
X46156171Y15983714D01*
X46765771Y15693428D02*
X46156171Y15693428D01*
X46765771Y15345085D01*
X46156171Y15345085D01*
X46823828Y15199942D02*
X46823828Y14735485D01*
X46765771Y14590342D02*
X46156171Y14590342D01*
X46156171Y14358114D01*
X46185200Y14300057D01*
X46214228Y14271028D01*
X46272285Y14242000D01*
X46359371Y14242000D01*
X46417428Y14271028D01*
X46446457Y14300057D01*
X46475485Y14358114D01*
X46475485Y14590342D01*
X46765771Y13632400D02*
X46475485Y13835600D01*
X46765771Y13980742D02*
X46156171Y13980742D01*
X46156171Y13748514D01*
X46185200Y13690457D01*
X46214228Y13661428D01*
X46272285Y13632400D01*
X46359371Y13632400D01*
X46417428Y13661428D01*
X46446457Y13690457D01*
X46475485Y13748514D01*
X46475485Y13980742D01*
X46156171Y13255028D02*
X46156171Y13138914D01*
X46185200Y13080857D01*
X46243257Y13022800D01*
X46359371Y12993771D01*
X46562571Y12993771D01*
X46678685Y13022800D01*
X46736742Y13080857D01*
X46765771Y13138914D01*
X46765771Y13255028D01*
X46736742Y13313085D01*
X46678685Y13371142D01*
X46562571Y13400171D01*
X46359371Y13400171D01*
X46243257Y13371142D01*
X46185200Y13313085D01*
X46156171Y13255028D01*
X46823828Y12877657D02*
X46823828Y12413200D01*
X46765771Y12268057D02*
X46156171Y12268057D01*
X46591600Y12064857D01*
X46156171Y11861657D01*
X46765771Y11861657D01*
X46765771Y11571371D02*
X46156171Y11571371D01*
X46707714Y10932742D02*
X46736742Y10961771D01*
X46765771Y11048857D01*
X46765771Y11106914D01*
X46736742Y11194000D01*
X46678685Y11252057D01*
X46620628Y11281085D01*
X46504514Y11310114D01*
X46417428Y11310114D01*
X46301314Y11281085D01*
X46243257Y11252057D01*
X46185200Y11194000D01*
X46156171Y11106914D01*
X46156171Y11048857D01*
X46185200Y10961771D01*
X46214228Y10932742D01*
X46765771Y10323142D02*
X46475485Y10526342D01*
X46765771Y10671485D02*
X46156171Y10671485D01*
X46156171Y10439257D01*
X46185200Y10381200D01*
X46214228Y10352171D01*
X46272285Y10323142D01*
X46359371Y10323142D01*
X46417428Y10352171D01*
X46446457Y10381200D01*
X46475485Y10439257D01*
X46475485Y10671485D01*
X46156171Y9945771D02*
X46156171Y9829657D01*
X46185200Y9771600D01*
X46243257Y9713542D01*
X46359371Y9684514D01*
X46562571Y9684514D01*
X46678685Y9713542D01*
X46736742Y9771600D01*
X46765771Y9829657D01*
X46765771Y9945771D01*
X46736742Y10003828D01*
X46678685Y10061885D01*
X46562571Y10090914D01*
X46359371Y10090914D01*
X46243257Y10061885D01*
X46185200Y10003828D01*
X46156171Y9945771D01*
%TD*%
M02*
