%TF.GenerationSoftware,KiCad,Pcbnew,(6.0.0)*%
%TF.CreationDate,2022-01-10T09:23:07+09:00*%
%TF.ProjectId,orca_pcb,6f726361-5f70-4636-922e-6b696361645f,rev?*%
%TF.SameCoordinates,Original*%
%TF.FileFunction,Paste,Top*%
%TF.FilePolarity,Positive*%
%FSLAX46Y46*%
G04 Gerber Fmt 4.6, Leading zero omitted, Abs format (unit mm)*
G04 Created by KiCad (PCBNEW (6.0.0)) date 2022-01-10 09:23:07*
%MOMM*%
%LPD*%
G01*
G04 APERTURE LIST*
%ADD10R,1.200000X1.200000*%
G04 APERTURE END LIST*
D10*
%TO.C,D25*%
X142955000Y6000000D03*
X139805000Y6000000D03*
%TD*%
%TO.C,D24*%
X119205000Y6000000D03*
X116055000Y6000000D03*
%TD*%
%TO.C,D23*%
X85955000Y6000000D03*
X82805000Y6000000D03*
%TD*%
%TO.C,D22*%
X62205000Y6000000D03*
X59055000Y6000000D03*
%TD*%
%TO.C,D17*%
X196000000Y36075000D03*
X196000000Y32925000D03*
%TD*%
%TO.C,D16*%
X177000000Y32925000D03*
X177000000Y36075000D03*
%TD*%
%TO.C,D15*%
X158000000Y36075000D03*
X158000000Y32925000D03*
%TD*%
%TO.C,D14*%
X139000000Y36075000D03*
X139000000Y32925000D03*
%TD*%
%TO.C,D13*%
X63000000Y36075000D03*
X63000000Y32925000D03*
%TD*%
%TO.C,D12*%
X44000000Y36075000D03*
X44000000Y32925000D03*
%TD*%
%TO.C,D11*%
X25000000Y36075000D03*
X25000000Y32925000D03*
%TD*%
%TO.C,D10*%
X6000000Y36075000D03*
X6000000Y32925000D03*
%TD*%
%TO.C,D07*%
X196000000Y64575000D03*
X196000000Y61425000D03*
%TD*%
%TO.C,D06*%
X177000000Y64575000D03*
X177000000Y61425000D03*
%TD*%
%TO.C,D05*%
X158000000Y64575000D03*
X158000000Y61425000D03*
%TD*%
%TO.C,D04*%
X139000000Y64575000D03*
X139000000Y61425000D03*
%TD*%
%TO.C,D03*%
X63000000Y64575000D03*
X63000000Y61425000D03*
%TD*%
%TO.C,D02*%
X44000000Y61425000D03*
X44000000Y64575000D03*
%TD*%
%TO.C,D01*%
X25000000Y64575000D03*
X25000000Y61425000D03*
%TD*%
%TO.C,D00*%
X6000000Y64575000D03*
X6000000Y61425000D03*
%TD*%
M02*
