%TF.GenerationSoftware,KiCad,Pcbnew,(6.0.0)*%
%TF.CreationDate,2022-01-10T09:23:07+09:00*%
%TF.ProjectId,orca_pcb,6f726361-5f70-4636-922e-6b696361645f,rev?*%
%TF.SameCoordinates,Original*%
%TF.FileFunction,Soldermask,Top*%
%TF.FilePolarity,Negative*%
%FSLAX46Y46*%
G04 Gerber Fmt 4.6, Leading zero omitted, Abs format (unit mm)*
G04 Created by KiCad (PCBNEW (6.0.0)) date 2022-01-10 09:23:07*
%MOMM*%
%LPD*%
G01*
G04 APERTURE LIST*
%ADD10C,3.600000*%
%ADD11C,5.500000*%
%ADD12C,1.750000*%
%ADD13C,4.000000*%
%ADD14R,1.200000X1.200000*%
%ADD15R,1.600000X1.600000*%
%ADD16C,1.600000*%
%ADD17C,2.082800*%
G04 APERTURE END LIST*
D10*
%TO.C,REF01*%
X197750000Y74250000D03*
D11*
X197750000Y74250000D03*
%TD*%
D10*
%TO.C,REF03*%
X197750000Y4250000D03*
D11*
X197750000Y4250000D03*
%TD*%
D10*
%TO.C,REF02*%
X4250000Y4250000D03*
D11*
X4250000Y4250000D03*
%TD*%
D10*
%TO.C,REF00*%
X4250000Y74250000D03*
D11*
X4250000Y74250000D03*
%TD*%
D12*
%TO.C,K25*%
X146460000Y15500000D03*
X136300000Y15500000D03*
D13*
X141380000Y15500000D03*
%TD*%
D12*
%TO.C,K24*%
X122710000Y15500000D03*
X112550000Y15500000D03*
D13*
X117630000Y15500000D03*
%TD*%
%TO.C,K23*%
X84380000Y15500000D03*
D12*
X79300000Y15500000D03*
X89460000Y15500000D03*
%TD*%
%TO.C,K22*%
X65710000Y15500000D03*
X55550000Y15500000D03*
D13*
X60630000Y15500000D03*
%TD*%
D12*
%TO.C,K17*%
X191580000Y34500000D03*
X181420000Y34500000D03*
D13*
X186500000Y34500000D03*
%TD*%
D12*
%TO.C,K16*%
X172580000Y34500000D03*
X162420000Y34500000D03*
D13*
X167500000Y34500000D03*
%TD*%
D12*
%TO.C,K15*%
X153580000Y34500000D03*
X143420000Y34500000D03*
D13*
X148500000Y34500000D03*
%TD*%
%TO.C,K14*%
X129500000Y34500000D03*
D12*
X124420000Y34500000D03*
X134580000Y34500000D03*
%TD*%
%TO.C,K13*%
X77580000Y34500000D03*
X67420000Y34500000D03*
D13*
X72500000Y34500000D03*
%TD*%
D12*
%TO.C,K12*%
X58580000Y34500000D03*
X48420000Y34500000D03*
D13*
X53500000Y34500000D03*
%TD*%
%TO.C,K11*%
X34500000Y34500000D03*
D12*
X29420000Y34500000D03*
X39580000Y34500000D03*
%TD*%
%TO.C,K10*%
X20580000Y34500000D03*
X10420000Y34500000D03*
D13*
X15500000Y34500000D03*
%TD*%
D12*
%TO.C,K07*%
X191580000Y63000000D03*
X181420000Y63000000D03*
D13*
X186500000Y63000000D03*
%TD*%
D12*
%TO.C,K06*%
X172580000Y63000000D03*
X162420000Y63000000D03*
D13*
X167500000Y63000000D03*
%TD*%
D12*
%TO.C,K05*%
X153580000Y63000000D03*
X143420000Y63000000D03*
D13*
X148500000Y63000000D03*
%TD*%
D12*
%TO.C,K04*%
X134580000Y63000000D03*
X124420000Y63000000D03*
D13*
X129500000Y63000000D03*
%TD*%
D12*
%TO.C,K03*%
X77580000Y63000000D03*
X67420000Y63000000D03*
D13*
X72500000Y63000000D03*
%TD*%
D12*
%TO.C,K02*%
X58580000Y63000000D03*
X48420000Y63000000D03*
D13*
X53500000Y63000000D03*
%TD*%
D12*
%TO.C,K01*%
X39580000Y63000000D03*
X29420000Y63000000D03*
D13*
X34500000Y63000000D03*
%TD*%
D12*
%TO.C,K00*%
X20580000Y63000000D03*
X10420000Y63000000D03*
D13*
X15500000Y63000000D03*
%TD*%
D14*
%TO.C,D25*%
X142955000Y6000000D03*
X139805000Y6000000D03*
D15*
X137480000Y6000000D03*
D16*
X145280000Y6000000D03*
%TD*%
D14*
%TO.C,D24*%
X119205000Y6000000D03*
X116055000Y6000000D03*
D15*
X113730000Y6000000D03*
D16*
X121530000Y6000000D03*
%TD*%
D14*
%TO.C,D23*%
X85955000Y6000000D03*
X82805000Y6000000D03*
D15*
X80480000Y6000000D03*
D16*
X88280000Y6000000D03*
%TD*%
D14*
%TO.C,D22*%
X62205000Y6000000D03*
X59055000Y6000000D03*
D15*
X56730000Y6000000D03*
D16*
X64530000Y6000000D03*
%TD*%
D14*
%TO.C,D17*%
X196000000Y36075000D03*
X196000000Y32925000D03*
D15*
X196000000Y30600000D03*
D16*
X196000000Y38400000D03*
%TD*%
%TO.C,D16*%
X177000000Y38400000D03*
D15*
X177000000Y30600000D03*
D14*
X177000000Y32925000D03*
X177000000Y36075000D03*
%TD*%
%TO.C,D15*%
X158000000Y36075000D03*
X158000000Y32925000D03*
D15*
X158000000Y30600000D03*
D16*
X158000000Y38400000D03*
%TD*%
D14*
%TO.C,D14*%
X139000000Y36075000D03*
X139000000Y32925000D03*
D15*
X139000000Y30600000D03*
D16*
X139000000Y38400000D03*
%TD*%
D14*
%TO.C,D13*%
X63000000Y36075000D03*
X63000000Y32925000D03*
D15*
X63000000Y30600000D03*
D16*
X63000000Y38400000D03*
%TD*%
D14*
%TO.C,D12*%
X44000000Y36075000D03*
X44000000Y32925000D03*
D15*
X44000000Y30600000D03*
D16*
X44000000Y38400000D03*
%TD*%
D14*
%TO.C,D11*%
X25000000Y36075000D03*
X25000000Y32925000D03*
D15*
X25000000Y30600000D03*
D16*
X25000000Y38400000D03*
%TD*%
D14*
%TO.C,D10*%
X6000000Y36075000D03*
X6000000Y32925000D03*
D15*
X6000000Y30600000D03*
D16*
X6000000Y38400000D03*
%TD*%
D14*
%TO.C,D07*%
X196000000Y64575000D03*
X196000000Y61425000D03*
D15*
X196000000Y59100000D03*
D16*
X196000000Y66900000D03*
%TD*%
D14*
%TO.C,D06*%
X177000000Y64575000D03*
X177000000Y61425000D03*
D15*
X177000000Y59100000D03*
D16*
X177000000Y66900000D03*
%TD*%
D14*
%TO.C,D05*%
X158000000Y64575000D03*
X158000000Y61425000D03*
D15*
X158000000Y59100000D03*
D16*
X158000000Y66900000D03*
%TD*%
D14*
%TO.C,D04*%
X139000000Y64575000D03*
X139000000Y61425000D03*
D15*
X139000000Y59100000D03*
D16*
X139000000Y66900000D03*
%TD*%
D14*
%TO.C,D03*%
X63000000Y64575000D03*
X63000000Y61425000D03*
D15*
X63000000Y59100000D03*
D16*
X63000000Y66900000D03*
%TD*%
%TO.C,D02*%
X44000000Y66900000D03*
D15*
X44000000Y59100000D03*
D14*
X44000000Y61425000D03*
X44000000Y64575000D03*
%TD*%
%TO.C,D01*%
X25000000Y64575000D03*
X25000000Y61425000D03*
D15*
X25000000Y59100000D03*
D16*
X25000000Y66900000D03*
%TD*%
D14*
%TO.C,D00*%
X6000000Y64575000D03*
X6000000Y61425000D03*
D15*
X6000000Y59100000D03*
D16*
X6000000Y66900000D03*
%TD*%
D17*
%TO.C,B0*%
X18550000Y22370000D03*
X21090000Y22370000D03*
X23630000Y22370000D03*
X26170000Y22370000D03*
X28710000Y22370000D03*
X31250000Y22370000D03*
X33790000Y22370000D03*
X36330000Y22370000D03*
X38870000Y22370000D03*
X41410000Y22370000D03*
X43950000Y22370000D03*
X46490000Y22370000D03*
X46490000Y7130000D03*
X43950000Y7130000D03*
X41410000Y7130000D03*
X38870000Y7130000D03*
X36330000Y7130000D03*
X33790000Y7130000D03*
X31250000Y7130000D03*
X28710000Y7130000D03*
X26170000Y7130000D03*
X23630000Y7130000D03*
X21090000Y7130000D03*
X18550000Y7130000D03*
%TD*%
M02*
