M48
; DRILL file {KiCad (6.0.0)} date Mon Jan 10 09:23:45 2022
; FORMAT={-:-/ absolute / inch / decimal}
; #@! TF.CreationDate,2022-01-10T09:23:45+09:00
; #@! TF.GenerationSoftware,Kicad,Pcbnew,(6.0.0)
; #@! TF.FileFunction,NonPlated,1,2,NPTH
FMAT,2
INCH
; #@! TA.AperFunction,NonPlated,NPTH,ComponentDrill
T1C0.0689
; #@! TA.AperFunction,NonPlated,NPTH,ComponentDrill
T2C0.1575
%
G90
G05
T1
X0.4102Y2.4803
X0.4102Y1.3583
X0.8102Y2.4803
X0.8102Y1.3583
X1.1583Y2.4803
X1.1583Y1.3583
X1.5583Y2.4803
X1.5583Y1.3583
X1.9063Y2.4803
X1.9063Y1.3583
X2.187Y0.6102
X2.3063Y2.4803
X2.3063Y1.3583
X2.587Y0.6102
X2.6543Y2.4803
X2.6543Y1.3583
X3.0543Y2.4803
X3.0543Y1.3583
X3.122Y0.6102
X3.522Y0.6102
X4.4311Y0.6102
X4.8311Y0.6102
X4.8984Y2.4803
X4.8984Y1.3583
X5.2984Y2.4803
X5.2984Y1.3583
X5.3661Y0.6102
X5.6465Y2.4803
X5.6465Y1.3583
X5.7661Y0.6102
X6.0465Y2.4803
X6.0465Y1.3583
X6.3945Y2.4803
X6.3945Y1.3583
X6.7945Y2.4803
X6.7945Y1.3583
X7.1425Y2.4803
X7.1425Y1.3583
X7.5425Y2.4803
X7.5425Y1.3583
T2
X0.6102Y2.4803
X0.6102Y1.3583
X1.3583Y2.4803
X1.3583Y1.3583
X2.1063Y2.4803
X2.1063Y1.3583
X2.387Y0.6102
X2.8543Y2.4803
X2.8543Y1.3583
X3.322Y0.6102
X4.6311Y0.6102
X5.0984Y2.4803
X5.0984Y1.3583
X5.5661Y0.6102
X5.8465Y2.4803
X5.8465Y1.3583
X6.5945Y2.4803
X6.5945Y1.3583
X7.3425Y2.4803
X7.3425Y1.3583
T0
M30
